<svg xmlns="http://www.w3.org/2000/svg" viewBox="0 0 500 500"><g id="freepik--Floor--inject-162"><path id="freepik--floor--inject-162" d="M75.93,450.75c-96.14-55.51-96.14-145.5,0-201s252-55.51,348.14,0,96.14,145.49,0,201S172.06,506.25,75.93,450.75Z" style="fill:#fafafa"></path></g><g id="freepik--Shadows--inject-162"><polygon id="freepik--Shadow--inject-162" points="363.06 295.88 440.85 340.8 483.32 316.24 405.53 271.32 363.06 295.88" style="fill:#e0e0e0"></polygon><path id="freepik--shadow--inject-162" d="M63.45,376.13,16.83,349.26a1.2,1.2,0,0,1,0-2.27L132,280.24a4.35,4.35,0,0,1,3.93,0l46.61,26.87a1.2,1.2,0,0,1,0,2.27L67.37,376.12A4.33,4.33,0,0,1,63.45,376.13Z" style="fill:#e0e0e0"></path><path id="freepik--shadow--inject-162" d="M343.23,243.15c12.89,7.52,12.89,19.73,0,27.25s-33.8,7.53-46.69,0-12.89-19.73,0-27.25S330.33,235.62,343.23,243.15Z" style="fill:#e0e0e0"></path><path id="freepik--shadow--inject-162" d="M438.31,420.15c7.1,4.1,7.1,10.76,0,14.86s-18.64,4.1-25.74,0-7.11-10.76,0-14.86S431.2,416.05,438.31,420.15Z" style="fill:#e0e0e0"></path><ellipse id="freepik--shadow--inject-162" cx="379.91" cy="395.38" rx="66.5" ry="38.39" style="fill:#e0e0e0"></ellipse><path id="freepik--shadow--inject-162" d="M68.4,425.87c16.22,9.35,42.71,9.23,59.18-.28s16.67-24.8.46-34.15-42.71-9.23-59.18.28S52.19,416.52,68.4,425.87Z" style="fill:#e0e0e0"></path></g><g id="freepik--Window--inject-162"><g id="freepik--window--inject-162"><g id="freepik--window--inject-162"><g id="freepik--Frame--inject-162"><polygon points="26.95 220.17 29.47 221.68 115.33 172.11 112.8 170.6 26.95 220.17" style="fill:#fafafa"></polygon><polygon points="112.8 170.6 29.47 218.71 29.47 79.29 112.8 31.21 112.8 170.6" style="fill:#fff"></polygon><path d="M120.09,21.47,24.71,76.54V229.93l95.38-55.07Zm-4.76,150.64L29.47,221.68V79.29l85.86-49.57Z" style="fill:#f0f0f0"></path><polygon points="115.33 172.11 112.8 170.6 112.8 31.21 115.33 29.72 115.33 172.11" style="fill:#e0e0e0"></polygon><polygon points="29.47 178.11 29.47 181.07 115.33 131.5 112.8 130 29.47 178.11" style="fill:#fafafa"></polygon><polygon points="29.47 111.45 29.47 114.42 115.33 64.85 112.8 63.34 29.47 111.45" style="fill:#fafafa"></polygon><polygon points="120.09 21.48 117.53 20.01 22.14 75.08 24.71 76.54 120.09 21.48" style="fill:#fafafa"></polygon><polygon points="22.14 75.08 24.71 76.54 24.71 229.93 22.14 228.46 22.14 75.08" style="fill:#e0e0e0"></polygon><polygon points="66.19 58.09 68.75 56.61 68.75 199 66.19 197.54 66.19 58.09" style="fill:#e0e0e0"></polygon></g><polygon points="73.52 53.87 68.75 56.61 68.75 199 73.52 196.25 73.52 53.87" style="fill:#f0f0f0"></polygon><polygon points="120.09 62.1 120.09 67.59 24.71 122.66 24.71 117.17 120.09 62.1" style="fill:#f0f0f0"></polygon><polygon points="120.09 128.74 120.09 134.23 24.71 189.3 24.71 183.81 120.09 128.74" style="fill:#f0f0f0"></polygon><polygon points="68.75 91.74 66.19 90.25 29.47 111.45 29.47 114.42 68.75 91.74" style="fill:#fafafa"></polygon><polygon points="68.75 158.36 66.19 156.88 29.47 178.08 29.47 181.04 68.75 158.36" style="fill:#fafafa"></polygon></g></g></g><g id="freepik--Pictures--inject-162"><g id="freepik--pictures--inject-162"><g id="freepik--Picture--inject-162"><g id="freepik--frame--inject-162"><polygon points="137.64 89.95 139.34 90.96 174.2 70.84 172.5 69.82 137.64 89.95" style="fill:#fafafa"></polygon><polygon points="172.5 69.82 139.34 88.96 139.34 54.24 172.5 35.11 172.5 69.82" style="fill:#fff"></polygon><path d="M177.41,28.56,136.14,52.39V96.51l41.27-23.82ZM174.2,70.84,139.34,91V54.24L174.2,34.11Z" style="fill:#f0f0f0"></path><polygon points="174.2 70.84 172.5 69.82 172.5 35.11 174.2 34.11 174.2 70.84" style="fill:#e0e0e0"></polygon><polygon points="177.41 28.56 175.68 27.57 134.41 51.4 136.14 52.39 177.41 28.56" style="fill:#fafafa"></polygon><polygon points="134.41 51.4 136.14 52.39 136.14 96.52 134.41 95.53 134.41 51.4" style="fill:#e0e0e0"></polygon></g><g id="freepik--Land--inject-162"><polygon points="171.21 68.78 140.64 86.44 140.64 77.61 148.28 59.96 153.04 64.37 151.33 71.77 161.89 49.19 171.21 59.96 171.21 68.78" style="fill:#f0f0f0"></polygon><path d="M152.75,51.44a5,5,0,0,0-2.26,3.91c0,1.44,1,2,2.26,1.31A5,5,0,0,0,155,52.74C155,51.3,154,50.71,152.75,51.44Z" style="fill:#f0f0f0"></path></g></g><g id="freepik--picture--inject-162"><g id="freepik--frame--inject-162"><polygon points="137.64 150.89 139.34 151.91 174.2 131.78 172.5 130.76 137.64 150.89" style="fill:#fafafa"></polygon><polygon points="172.5 130.76 139.34 149.91 139.34 115.18 172.5 96.05 172.5 130.76" style="fill:#fff"></polygon><path d="M177.41,89.5l-41.27,23.83v44.13l41.27-23.83Zm-3.21,42.28-34.86,20.13V115.18L174.2,95.05Z" style="fill:#f0f0f0"></path><polygon points="174.2 131.78 172.5 130.76 172.5 96.05 174.2 95.05 174.2 131.78" style="fill:#e0e0e0"></polygon><polygon points="177.41 89.5 175.68 88.51 134.41 112.34 136.13 113.33 177.41 89.5" style="fill:#fafafa"></polygon><polygon points="134.41 112.34 136.13 113.33 136.13 157.46 134.41 156.47 134.41 112.34" style="fill:#e0e0e0"></polygon></g><g id="freepik--land--inject-162"><polygon points="171.21 129.73 140.64 147.38 140.64 138.55 148.28 120.9 153.04 125.31 151.33 132.71 161.89 110.14 171.21 120.9 171.21 129.73" style="fill:#f0f0f0"></polygon><path d="M152.75,112.38a5,5,0,0,0-2.26,3.92c0,1.44,1,2,2.26,1.3a5,5,0,0,0,2.27-3.92C155,112.24,154,111.66,152.75,112.38Z" style="fill:#f0f0f0"></path></g></g></g></g><g id="freepik--Furniture--inject-162"><g id="freepik--Drawer--inject-162"><polygon points="73.31 350.14 69.3 370 65.41 372.25 61.55 370.02 57.52 350.14 65.41 345.58 73.31 350.14" style="fill:#e0e0e0"></polygon><polygon points="73.31 350.14 69.3 370 65.41 372.25 61.55 370.02 57.52 350.14 65.41 345.58 73.31 350.14" style="opacity:0.05"></polygon><polygon points="65.41 372.25 65.41 354.7 73.31 350.14 69.3 370 65.41 372.25" style="fill:#ebebeb"></polygon><polygon points="73.31 350.14 70.72 362.97 65.41 366.03 60.13 362.98 57.52 350.14 65.41 345.58 73.31 350.14" style="opacity:0.05"></polygon><polygon points="38.59 330.1 34.59 349.96 30.7 352.21 26.84 349.98 22.8 330.1 30.7 325.54 38.59 330.1" style="fill:#e0e0e0"></polygon><polygon points="38.59 330.1 34.59 349.96 30.7 352.21 26.84 349.98 22.8 330.1 30.7 325.54 38.59 330.1" style="opacity:0.05"></polygon><polygon points="30.7 352.21 30.7 334.66 38.59 330.1 34.59 349.96 30.7 352.21" style="fill:#ebebeb"></polygon><polygon points="38.59 330.1 36.01 342.93 30.7 345.99 25.41 342.94 22.8 330.1 30.7 325.54 38.59 330.1" style="opacity:0.05"></polygon><polygon points="176 290.85 171.99 310.71 168.1 312.96 164.25 310.73 160.21 290.85 168.1 286.3 176 290.85" style="opacity:0.05"></polygon><polygon points="168.1 312.96 168.1 295.41 176 290.85 171.99 310.71 168.1 312.96" style="fill:#ebebeb"></polygon><polygon points="176 290.85 173.41 303.68 168.1 306.74 162.81 303.69 160.21 290.85 168.1 286.3 176 290.85" style="opacity:0.05"></polygon><g id="freepik--Cabinet--inject-162"><g id="freepik--cabinet--inject-162"><polygon points="65.41 362.83 22.39 337.99 22.39 244.88 65.41 269.71 65.41 362.83" style="fill:#e0e0e0"></polygon><polygon points="65.41 269.71 178.24 204.58 178.24 297.69 65.41 362.83 65.41 269.71" style="fill:#ebebeb"></polygon><polygon points="178.24 204.58 65.41 269.71 22.39 244.88 135.21 179.74 178.24 204.58" style="fill:#f5f5f5"></polygon><polygon points="71.56 315.84 172.09 257.8 172.09 291.97 173.22 292.63 72.69 350.67 71.56 350.01 71.56 315.84" style="fill:#e0e0e0"></polygon><polygon points="72.69 316.5 173.22 258.45 173.22 292.63 72.69 350.67 72.69 316.5" style="fill:#f5f5f5"></polygon><path d="M121,295.05l8.36-4.83c1.09-.63,2-.34,2,.64a3.94,3.94,0,0,1-2,2.91L121,298.6c-1.09.62-2,.34-2-.64A3.94,3.94,0,0,1,121,295.05Z" style="fill:#e0e0e0"></path><polygon points="71.56 274.58 172.09 216.54 172.09 250.71 173.22 251.36 72.69 309.4 71.55 308.75 71.56 274.58" style="fill:#e0e0e0"></polygon><polygon points="72.69 275.23 173.22 217.19 173.22 251.36 72.69 309.4 72.69 275.23" style="fill:#f5f5f5"></polygon><path d="M121,253.79l8.36-4.83c1.08-.63,2-.34,2,.64a4,4,0,0,1-2,2.91L121,257.34c-1.09.62-2,.34-2-.64A3.92,3.92,0,0,1,121,253.79Z" style="fill:#e0e0e0"></path></g></g></g></g><g id="freepik--Plant--inject-162"><g id="freepik--plant--inject-162"><g id="freepik--Pot--inject-162"><g id="freepik--pot--inject-162"><path d="M340.59,258.66c11.07-11.42,17.57-43.42,6.77-52.48H292.41c-10.8,9.06-4.31,41,6.76,52.47l.31.32.38.38c.31.3.64.6,1,.9l.26.21c.27.21.54.43.84.63a15.13,15.13,0,0,0,1.43.93c9.11,5.32,23.88,5.32,33,0h0a16.66,16.66,0,0,0,1.44-.93l.78-.6.32-.26a11.73,11.73,0,0,0,1-.87l.44-.43C340.41,258.84,340.51,258.76,340.59,258.66Z" style="fill:#e6e6e6"></path><path d="M297.18,202.53c-12.54,7.32-12.54,19.19,0,26.51s32.87,7.32,45.41,0,12.54-19.19,0-26.51S309.72,195.21,297.18,202.53Z" style="fill:#f0f0f0"></path><path d="M303.21,206.05c-9.21,5.38-9.21,14.09,0,19.47s24.14,5.38,33.35,0,9.2-14.09,0-19.47S312.42,200.67,303.21,206.05Z" style="fill:#e0e0e0"></path><path d="M336.56,215.29c-9.21-5.38-24.14-5.38-33.35,0a15.33,15.33,0,0,0-5.52,5.12,15.4,15.4,0,0,0,5.52,5.11c9.21,5.38,24.14,5.38,33.35,0a15.36,15.36,0,0,0,5.51-5.11A15.29,15.29,0,0,0,336.56,215.29Z" style="fill:#f5f5f5"></path></g><g id="freepik--Plants--inject-162"><path d="M304.09,141.14l14.78,15.26-15-9.46a44.52,44.52,0,0,0,.78,15.48s7.25,5.72,11.27,10.45l-11.6-6.45s-1.9,8-.16,20.7c.46,3.34,3.27,10,4.95,14.87a52.68,52.68,0,0,0,2.75,6.6c.06.14.13.27.19.41,3-1.23,6.13-2.41,9.34-3.51,2.51-3.88,6.42-13.76,8.45-22,7.73-31.57-14.08-53.11-32.74-61.83C297.11,121.65,302.69,130.92,304.09,141.14Z" style="fill:#ebebeb"></path><path d="M317.71,144.3c2.93,3.83,4.31,8.55,5.24,13.2a65.48,65.48,0,0,1,1.11,14.25,60.55,60.55,0,0,1-7.15,27.36h0a.47.47,0,1,0,.82.44h0a61.27,61.27,0,0,0,6.8-27.8,66,66,0,0,0-1.35-14.3C322.18,152.8,320.7,148.08,317.71,144.3Z" style="fill:#fff"></path><path d="M379.27,152.66l0,0c-.44.53-7.68,9.19-18.4,26l-17.94,2.95,13.25,2.27-7.07,11.28-17.65,3.72,13.8,2.19s-3.79,13.48-13.64,19.12c-5.44,3.12-7.8,3.2-9.74,2.05-2.37-1.4-3.51-5.26-4.49-11s1-17.41,6.39-28.73a35.31,35.31,0,0,1,5.63-8.33C342.4,159.62,367.06,152.52,379.27,152.66Z" style="fill:#f0f0f0"></path><path d="M360.51,158.6c-9.26,4.1-18,9.72-24.9,17.33a49,49,0,0,0-8.51,12.72,46.6,46.6,0,0,0-3.85,14.76.07.07,0,0,0,0,.06.06.06,0,0,0,.06-.05A59.78,59.78,0,0,1,328,189.07a55.57,55.57,0,0,1,8.2-12.62c6.65-7.62,15.22-13.41,24.36-17.76a.07.07,0,0,0,0-.07A0,0,0,0,0,360.51,158.6Z" style="fill:#fff"></path><path d="M257,160.37h0a40.19,40.19,0,0,1,5-.22A79.22,79.22,0,0,1,281.37,163c2.35.64,4.71,1.39,7,2.25,1.16.43,2.32.89,3.47,1.39a54.81,54.81,0,0,1,15.52,9.66,34.78,34.78,0,0,1,5.64,6.57c.21.31.43.62.62.94h0c.51.83,1,1.65,1.4,2.46,5.05,9.08,6,15.62,6.4,22.94.3,5.67-1,12.31-2,13.47a3.55,3.55,0,0,1-.46.41c-1.52,1.17-4.14.8-9.17-1.44-10.09-4.5-15.1-17.76-15.1-17.76l13.14-3.48-17.44-1.86-7.95-10.22,12.6-3.49-17.65-1.1c-12-15.25-19.88-22.92-20.35-23.39l0,0Z" style="fill:#f0f0f0"></path><path d="M262,160.15A79.22,79.22,0,0,1,281.37,163c2.35.64,4.71,1.39,7,2.25,1.16.43,2.32.89,3.47,1.39a54.81,54.81,0,0,1,15.52,9.66,34.78,34.78,0,0,1,5.64,6.57c.21.31.43.62.62.94h0c.51.83,1,1.65,1.4,2.46,5.05,9.08,6,15.62,6.4,22.94.3,5.67-1,12.31-2,13.47a3.55,3.55,0,0,1-.46.41,3.1,3.1,0,0,1-1,.48c.38-8.87-5.95-30.7-13.31-39.25-7.65-8.89-25-21.22-47.59-24v0A39.62,39.62,0,0,1,262,160.15Z" style="fill:#e6e6e6"></path><path d="M318,223.61a75.42,75.42,0,0,0-3-19.27,62.82,62.82,0,0,0-8.1-17.8c-3.8-5.42-8.94-9.67-14.34-13.35a72.72,72.72,0,0,0-17.6-8.49.06.06,0,0,0-.07,0,.05.05,0,0,0,0,.07,95.84,95.84,0,0,1,17,9.3,68.74,68.74,0,0,1,7.65,5.92,43,43,0,0,1,6.59,7,62.22,62.22,0,0,1,8.29,17.45,75.16,75.16,0,0,1,3.43,19.11.06.06,0,0,0,.06.06A.06.06,0,0,0,318,223.61Z" style="fill:#fff"></path></g></g></g></g><g id="freepik--Mirror--inject-162"><g id="freepik--mirror--inject-162"><g id="freepik--mirror--inject-162"><path d="M465.22,311.33A8.53,8.53,0,0,1,461,310l-54.33-31.37a24.62,24.62,0,0,1-10.49-14.5L372,148.24a1.81,1.81,0,0,1,1.39-2.13,1.78,1.78,0,0,1,2.13,1.4L399.69,263.4a21.26,21.26,0,0,0,8.76,12.12l54.34,31.37c1.53.89,2.62,1,3,.7s.65-1.36.29-3.09L442.34,188.84a1.8,1.8,0,1,1,3.53-.73l23.76,115.67c.86,4.16-.7,6-1.71,6.73A4.49,4.49,0,0,1,465.22,311.33Z" style="fill:#e0e0e0"></path><g style="opacity:0.1"><path d="M465.22,311.33A8.53,8.53,0,0,1,461,310l-54.33-31.37a24.62,24.62,0,0,1-10.49-14.5L372,148.24a1.81,1.81,0,0,1,1.39-2.13,1.78,1.78,0,0,1,2.13,1.4L399.69,263.4a21.26,21.26,0,0,0,8.76,12.12l54.34,31.37c1.53.89,2.62,1,3,.7s.65-1.36.29-3.09L442.34,188.84a1.8,1.8,0,1,1,3.53-.73l23.76,115.67c.86,4.16-.7,6-1.71,6.73A4.49,4.49,0,0,1,465.22,311.33Z"></path></g><polygon points="360.06 291.85 440.45 338.27 455.06 85.1 374.67 38.68 360.06 291.85" style="fill:#ebebeb"></polygon><polygon points="365.63 288.84 379.57 47.74 449.49 88.11 435.55 329.2 365.63 288.84" style="fill:#fafafa"></polygon><polygon points="458.78 82.95 455.06 85.1 440.45 338.27 444.16 336.12 458.78 82.95" style="fill:#e0e0e0"></polygon><polygon points="378.38 36.54 374.67 38.68 455.06 85.1 458.78 82.95 378.38 36.54" style="fill:#f5f5f5"></polygon><g id="freepik--Shines--inject-162"><polygon points="371.74 183.12 371.16 193.19 447.85 116.5 448.43 106.43 371.74 183.12" style="fill:#f5f5f5"></polygon><polygon points="378.3 69.72 377.72 79.79 398.71 58.8 392.7 55.32 378.3 69.72" style="fill:#f5f5f5"></polygon><polygon points="423.34 73.02 408.35 64.36 376.79 95.92 375.33 121.03 423.34 73.02" style="fill:#f5f5f5"></polygon><polygon points="447.03 130.69 370.34 207.37 369.3 225.41 445.98 148.72 447.03 130.69" style="fill:#f5f5f5"></polygon><polygon points="438.63 275.99 440.08 250.89 388.77 302.2 403.76 310.85 438.63 275.99" style="fill:#f5f5f5"></polygon><polygon points="441.09 233.39 441.67 223.32 372.3 292.69 378.32 296.16 441.09 233.39" style="fill:#f5f5f5"></polygon><polygon points="444.8 169.19 445.38 159.13 368.7 235.81 368.12 245.88 444.8 169.19" style="fill:#f5f5f5"></polygon></g></g></g></g><g id="freepik--Mannequin--inject-162"><g id="freepik--mannequin--inject-162"><path d="M120.92,388.7c-12.35-7.12-32.51-7-45,.22-6.32,3.65-9.47,8.41-9.47,13.16,0,.81,0,4,0,4.75-.05,4.69,3,9.35,9.12,12.9,12.34,7.12,32.51,7,45.05-.21,6.35-3.67,9.5-8.47,9.47-13.24,0-.78,0-4,0-4.85C130,396.8,127,392.21,120.92,388.7Z" style="fill:#37474f"></path><path d="M75.52,414.91c12.34,7.12,32.51,7,45.05-.22s12.69-18.87.35-26-32.51-7-45,.22S63.18,407.79,75.52,414.91Z" style="fill:#455a64"></path><path d="M102.8,400.68a2.14,2.14,0,0,1-1.29,1.91,7.08,7.08,0,0,1-6.4,0,2.46,2.46,0,0,1-1.47-1.88h0V249l9,.12Z" style="fill:#37474f"></path><path d="M97.7,403.31a5.85,5.85,0,0,1-2.59-.75,2.46,2.46,0,0,1-1.47-1.88h0V249l4.06.05Z" style="fill:#263238"></path><path d="M101.39,251a7.08,7.08,0,0,1-6.4,0c-1.78-1-1.8-2.68,0-3.69a7.08,7.08,0,0,1,6.4,0C103.12,248.32,103.14,250,101.39,251Z" style="fill:#263238"></path><path d="M127.56,155.23l1.11-17.54c10.4-8.43,6-20,3-24.49s-6.19-9.3-9.52-14.07a20.43,20.43,0,0,0-2.57-11.88c-6.5-10.91-18.26-5.21-22-3.06L77.15,96c-1,.61-5.89,3.32-6.8,3.93a103.77,103.77,0,0,0-12.79,9.84v0c-1.87,1.64-3,4.81-3,9.08,0,8.25,4.35,17.46,9.72,20.56.26.15.53.27.78.39h0c5.14,2.81,6.18,6.29,7.36,13.1.21,1.3.37,2.5.45,3.77-.25,13.93-3.77,14.19-9.33,30.09-3.63,10.39-2.56,18.92-1.51,33.77.48,6.86.83,10.93,1.52,18.64h0c-.13,5.21,3.24,10.45,10.13,14.42,13.53,7.81,35.47,7.81,49,0,6.36-3.67,9.72-8.42,10.1-13.23h0s1-13.38,1.75-25.52c1.86-29.65-5.82-46.65-6.37-50.46A62.38,62.38,0,0,1,127.56,155.23Z" style="fill:#BA68C8"></path><path d="M113.39,144.15c-6,8.55-23.26,7-28.84-2C86.75,154.86,109.08,157.28,113.39,144.15Z" style="opacity:0.2"></path><path d="M64.24,139.42c-5.37-3.1-9.71-12.3-9.71-20.56,0-4.65,1.37-8,3.53-9.5,1.68-1.16,3.83-1.2,6.18.15,5.37,3.1,9.71,12.3,9.71,20.56,0,3.87-1,6.84-2.52,8.6C69.65,140.65,67.09,141.06,64.24,139.42Z" style="opacity:0.2"></path><path d="M120.26,88.64l-4.44,2.86s4,4.55,6.28,7.63V96.46A19.91,19.91,0,0,0,120.26,88.64Z" style="opacity:0.1"></path><path d="M80.71,84.2V96c-.32,1.89,1.17,6.71,3.26,8.71,4.41,4.23,16,9.49,20.51,6.92,2.23-1.29,0-9.51-.56-15.11-.53-5.44-.44-12.36-.44-12.36Z" style="fill:#BA68C8"></path><path d="M80.71,84.2V96c-.32,1.89,1.17,6.71,3.26,8.71,4.41,4.23,16,9.49,20.51,6.92,2.23-1.29,0-9.51-.56-15.11-.53-5.44-.44-12.36-.44-12.36Z" style="opacity:0.1"></path><path d="M121.54,172.51c-.27-1.45-.49-2.65-.64-3.62a22.11,22.11,0,0,0,7.2-4.91c-.09-.67-.17-1.32-.23-1.93a18.74,18.74,0,0,1-7.15,5.39h0a114,114,0,0,1,.76-21.69c1.21-10.76-.41-15.06-4.75-21.19-1.57-2.22-3.56-4.5-5.49-6.71-3.09-3.55-6.29-7.21-8-10.82-2.44-5.17-2.41-15.3-2.39-20.74V85.16H99.44v1.13c0,5.55,0,15.88,2.53,21.34,1.79,3.79,5,7.53,8.2,11.15a84.42,84.42,0,0,1,5.41,6.6c4,5.61,5.71,9.43,4.5,20.21a115,115,0,0,0-.78,21.83c0,.19,0,.4.06.62a47.73,47.73,0,0,1-14.66,3.15c-13.32.93-26.28-2.37-32.32-8.1-.08.58-.18,1.13-.28,1.66,6.48,5.62,17.89,8,28.2,8,1.53,0,3,0,4.5-.15a49.71,49.71,0,0,0,14.76-3.14c.15.92.35,2,.59,3.3a176.24,176.24,0,0,1,3.19,40.86c-.68,19.2-1.55,33.65-2,40.68.44-.23.91-.45,1.33-.7l.14-.08c.47-7.32,1.3-21.4,2-39.85A177.43,177.43,0,0,0,121.54,172.51Z" style="fill:#fff"></path><path d="M84,104.75a30.48,30.48,0,0,0,8.1,5.11V84.2H80.71V96C80.39,97.93,81.88,102.75,84,104.75Z" style="opacity:0.2"></path><path d="M100.15,88.87c-4.46,2.57-11.69,2.57-16.15,0-2.51-1.45-3.61-3.41-3.29-5.3a6.05,6.05,0,0,1,3.29-4c4.46-2.58,11.69-2.58,16.15,0,2.09,1.21,3.2,2.76,3.33,4.35C103.63,85.68,102.52,87.5,100.15,88.87Z" style="fill:#BA68C8"></path><path d="M100.15,88.87c-4.46,2.57-11.69,2.57-16.15,0-2.51-1.45-3.61-3.41-3.29-5.3a6.05,6.05,0,0,1,3.29-4c4.46-2.58,11.69-2.58,16.15,0,2.09,1.21,3.2,2.76,3.33,4.35C103.63,85.68,102.52,87.5,100.15,88.87Z" style="fill:#fff;opacity:0.1"></path><path d="M105.25,110.44a1.93,1.93,0,0,1-.77,1.23l-.08,0a27.64,27.64,0,0,1-2.43-4.07C99.8,103,99.48,95,99.45,89.23a5.83,5.83,0,0,0,.7-.37,7.15,7.15,0,0,0,.71-.45c0,5.65.25,14.06,2.39,18.62A26.48,26.48,0,0,0,105.25,110.44Z" style="fill:#e0e0e0"></path></g></g><g id="freepik--Base--inject-162"><g id="freepik--base--inject-162"><path d="M304.36,410.88c0-10.35-6.84-20.69-20.51-28.59-27.34-15.78-71.68-15.78-99,0-13.67,7.9-20.51,18.24-20.51,28.59V421c0,10.35,6.84,20.69,20.51,28.59,27.35,15.78,71.68,15.78,99,0,13.67-7.9,20.51-18.24,20.51-28.59Z" style="fill:#e0e0e0"></path><path d="M184.83,382.29c-13.67,7.9-20.51,18.24-20.5,28.59s6.83,20.69,20.5,28.58c27.35,15.79,71.68,15.79,99,0,13.67-7.89,20.51-18.24,20.51-28.58s-6.84-20.69-20.51-28.59C256.51,366.51,212.17,366.51,184.83,382.29Z" style="fill:#f5f5f5"></path><path d="M234.34,371.51c18.52,0,35.91,4.16,49,11.7,12.88,7.44,20,17.26,20,27.67s-7.1,20.22-20,27.66c-13.06,7.54-30.46,11.7-49,11.7s-35.91-4.16-49-11.7c-12.88-7.44-20-17.26-20-27.66s7.09-20.23,20-27.67c13.07-7.54,30.46-11.7,49-11.7m0-1.06c-17.92,0-35.84,3.95-49.51,11.84s-20.51,18.24-20.5,28.59,6.83,20.69,20.5,28.58,31.59,11.84,49.51,11.84,35.84-3.95,49.51-11.84,20.51-18.24,20.51-28.58-6.84-20.69-20.51-28.59-31.59-11.84-49.51-11.84Z" style="fill:#e0e0e0"></path><path d="M294.34,397.47c0-8.87-5.86-17.73-17.57-24.49-23.43-13.53-61.43-13.53-84.85,0-11.72,6.76-17.58,15.62-17.58,24.49v8.65c0,8.87,5.86,17.73,17.58,24.5,23.43,13.52,61.42,13.52,84.85,0,11.72-6.77,17.57-15.63,17.57-24.5Z" style="fill:#e0e0e0"></path><path d="M191.91,373c-11.71,6.76-17.57,15.62-17.57,24.49S180.2,415.2,191.92,422c23.43,13.53,61.42,13.53,84.85,0,11.71-6.76,17.57-15.63,17.57-24.49s-5.86-17.73-17.57-24.49C253.34,359.45,215.35,359.45,191.91,373Z" style="fill:#f5f5f5"></path><path d="M234.34,363.74c15.87,0,30.78,3.56,42,10s17.12,14.8,17.12,23.71-6.08,17.33-17.12,23.71-26.1,10-42,10-30.77-3.56-42-10c-11-6.38-17.12-14.8-17.12-23.71s6.08-17.33,17.12-23.71c11.2-6.46,26.1-10,42-10m0-.91c-15.35,0-30.71,3.38-42.43,10.15s-17.57,15.62-17.57,24.49S180.2,415.2,191.92,422s27.07,10.15,42.42,10.15,30.71-3.38,42.43-10.15,17.57-15.63,17.57-24.49-5.86-17.73-17.57-24.49-27.07-10.15-42.43-10.15Z" style="fill:#e0e0e0"></path></g></g><g id="freepik--speech-bubble-2--inject-162"><g id="freepik--speech-bubble--inject-162"><g id="freepik--speech-bubble--inject-162"><path d="M436.7,146.73a28.48,28.48,0,0,1-14.48,15.16l-3,1.2A28.52,28.52,0,0,1,397,110.72l3-1.34a28.52,28.52,0,0,1,36.69,37.35Z" style="fill:#fff"></path><path d="M421.88,107.3A31,31,0,0,0,394,162.35l-.15,9.62a1.8,1.8,0,0,0,3.11,1.26l6.59-7a31,31,0,0,0,18.34-58.93Zm14.81,39.43a28.43,28.43,0,0,1-14.47,15.16l-3,1.2A28.52,28.52,0,0,1,397,110.72l3-1.34a28.52,28.52,0,0,1,36.68,37.35Z" style="fill:#BA68C8"></path><path d="M436.69,146.73a28.43,28.43,0,0,1-14.47,15.16l-3,1.2A28.52,28.52,0,0,1,397,110.72l3-1.34a28.52,28.52,0,0,1,36.68,37.35Z" style="fill:#fff;opacity:0.7000000000000001"></path></g><path d="M403.57,137.05a.62.62,0,0,1-.46-.19.66.66,0,0,1-.19-.46V134h-7.54a.65.65,0,0,1-.65-.65v-2.54a1.66,1.66,0,0,1,.31-1l7.16-9a1.26,1.26,0,0,1,.4-.34,1.1,1.1,0,0,1,.49-.09h3.62a.62.62,0,0,1,.45.2.58.58,0,0,1,.19.45v9.2h2.06a.62.62,0,0,1,.46.19.61.61,0,0,1,.19.45v2.54a.65.65,0,0,1-.65.65h-2.06v2.44a.62.62,0,0,1-.19.46.61.61,0,0,1-.45.19Zm-.53-6.92v-4.41l-3.49,4.41Z" style="fill:#455a64"></path><path d="M416.09,132.07l.38.45a2.38,2.38,0,0,0,.49.45,2.89,2.89,0,0,0,1.65.49,3.43,3.43,0,0,0,1-.14,2.34,2.34,0,0,0,.81-.39,1.84,1.84,0,0,0,.56-.65,1.85,1.85,0,0,0,.21-.91,1.63,1.63,0,0,0-.64-1.33,2.68,2.68,0,0,0-1.73-.51,2.2,2.2,0,0,0-.64.09l-.55.21-.47.2a.82.82,0,0,1-.36.1H413a.69.69,0,0,1-.48-.19.57.57,0,0,1-.17-.46l.72-8.55a.72.72,0,0,1,.2-.45.59.59,0,0,1,.45-.2H424a.61.61,0,0,1,.45.2.58.58,0,0,1,.19.45v2.54a.58.58,0,0,1-.19.45.61.61,0,0,1-.45.2h-7l-.17,2.13a5,5,0,0,1,1-.4,4.84,4.84,0,0,1,1.24-.15,8.19,8.19,0,0,1,2.57.38,6.26,6.26,0,0,1,2.06,1.1,5.09,5.09,0,0,1,1.37,1.77,6.23,6.23,0,0,1,0,5,5.29,5.29,0,0,1-1.49,1.86,6.62,6.62,0,0,1-2.21,1.14,9.63,9.63,0,0,1-2.73.38,9.29,9.29,0,0,1-2.91-.42,6.85,6.85,0,0,1-2.17-1.13,5,5,0,0,1-1.36-1.63,4.32,4.32,0,0,1-.51-1.9.55.55,0,0,1,.53-.53h3a1,1,0,0,1,.59.15A1,1,0,0,1,416.09,132.07Z" style="fill:#455a64"></path><path d="M397.13,146.54a4.4,4.4,0,0,0,.39,1.53,3.16,3.16,0,0,0,.75,1,2.85,2.85,0,0,0,1,.6,3.24,3.24,0,0,0,1.11.19,3.92,3.92,0,0,0,1.85-.4,2.72,2.72,0,0,0,1.19-1.36,1.23,1.23,0,0,1,.33-.48.64.64,0,0,1,.42-.13h.68a.64.64,0,0,1,.44.18.52.52,0,0,1,.17.43,3,3,0,0,1-.35,1.19,3.83,3.83,0,0,1-1,1.19,6,6,0,0,1-6,.92,4.67,4.67,0,0,1-1.62-1.11,4.83,4.83,0,0,1-1-1.65,6.17,6.17,0,0,1-.42-2c0-.24,0-.54,0-.89a6.5,6.5,0,0,1,0-.92,7.07,7.07,0,0,1,.46-2,5.17,5.17,0,0,1,1-1.65,4.83,4.83,0,0,1,1.6-1.11,5.61,5.61,0,0,1,2.2-.4,5.6,5.6,0,0,1,3.76,1.32,4,4,0,0,1,1,1.2,3,3,0,0,1,.35,1.18.51.51,0,0,1-.17.43.64.64,0,0,1-.44.18h-.68a.7.7,0,0,1-.42-.12,1.28,1.28,0,0,1-.33-.49,2.7,2.7,0,0,0-1.19-1.35,3.92,3.92,0,0,0-1.85-.41,3.61,3.61,0,0,0-1.12.19,2.93,2.93,0,0,0-1,.6,3.41,3.41,0,0,0-.74,1,4,4,0,0,0-.37,1.54A8.34,8.34,0,0,0,397.13,146.54Z" style="fill:#455a64"></path><path d="M410.2,141.18c.14-.18.3-.36.48-.55a3.39,3.39,0,0,1,.62-.5,3.43,3.43,0,0,1,.82-.35,4.13,4.13,0,0,1,1.11-.13,4.58,4.58,0,0,1,2.28.51,3.69,3.69,0,0,1,1.43,1.45,7.6,7.6,0,0,1,.62-.76,3.2,3.2,0,0,1,.77-.64,3.69,3.69,0,0,1,1-.42,5.5,5.5,0,0,1,1.3-.14,3.9,3.9,0,0,1,3.32,1.36,6.08,6.08,0,0,1,1,3.74V151a.58.58,0,0,1-.18.43.6.6,0,0,1-.43.18h-.84a.6.6,0,0,1-.43-.18.58.58,0,0,1-.18-.43v-6a3.94,3.94,0,0,0-.68-2.56,2.41,2.41,0,0,0-2-.83,2.48,2.48,0,0,0-1.93.79,3.49,3.49,0,0,0-.74,2.44V151a.61.61,0,0,1-.61.61h-.83a.58.58,0,0,1-.43-.18.55.55,0,0,1-.18-.43v-6a4,4,0,0,0-.68-2.56,2.43,2.43,0,0,0-2-.83,2.5,2.5,0,0,0-1.93.79,3.49,3.49,0,0,0-.74,2.44V151a.61.61,0,0,1-.61.61h-.83a.61.61,0,0,1-.61-.61V140.48a.61.61,0,0,1,.18-.43.58.58,0,0,1,.43-.18h.83a.58.58,0,0,1,.43.18.61.61,0,0,1,.18.43Z" style="fill:#455a64"></path></g></g><g id="freepik--speech-bubble-1--inject-162"><g id="freepik--speech-bubble--inject-162"><g id="freepik--speech-bubble--inject-162"><path d="M327.29,104.58a28.52,28.52,0,0,1-20.94,1l-3-1.23a28.52,28.52,0,0,1,20-53.22l3.08,1.07a28.52,28.52,0,0,1,.89,52.35Z" style="fill:#fff"></path><path d="M343.69,65.79a31,31,0,0,0-58.13,20.72l-6.73,6.87a1.8,1.8,0,0,0,1.39,3.05l9.6-.54a31,31,0,0,0,53.87-30.1Zm-16.4,38.79a28.52,28.52,0,0,1-20.94,1l-3-1.23a28.52,28.52,0,0,1,20-53.22l3.08,1.07a28.52,28.52,0,0,1,.89,52.35Z" style="fill:#455a64"></path><path d="M327.29,104.58a28.52,28.52,0,0,1-20.94,1l-3-1.23a28.52,28.52,0,0,1,20-53.22l3.08,1.07a28.52,28.52,0,0,1,.89,52.35Z" style="fill:#fff;opacity:0.7000000000000001"></path></g><g id="freepik--Dress--inject-162"><path d="M320.06,71.45c2.74,3.3,5.45,10.82,6.4,15.33s1.69,11,1.69,11c-.39.23-1.19.83-2.25,1.39a1.21,1.21,0,0,1-1.63-.3c-1.4.89-2.15.39-2.15.39a2.48,2.48,0,0,1-.92,1.47c-.75.51-1.79.07-3.19.23a31.26,31.26,0,0,1-3.53.47.92.92,0,0,1-.89-.73,2.21,2.21,0,0,1-1.4.39,1.27,1.27,0,0,1-1.34-.61,7.77,7.77,0,0,1-2.51-.28c-.67-.33-.45-1.23-.45-1.23-1.5.28-1.56-.61-1.56-.61l-1.9.22a2,2,0,0,1-1.6-.84s.91-6.43,1.86-11,3.65-12,6.39-15.33l9,0" style="fill:#BA68C8"></path><path d="M320.06,71.45c2.74,3.3,5.45,10.82,6.4,15.33s1.69,11,1.69,11c-.39.23-1.19.83-2.25,1.39a1.21,1.21,0,0,1-1.63-.3c-1.4.89-2.15.39-2.15.39a2.48,2.48,0,0,1-.92,1.47c-.75.51-1.79.07-3.19.23a31.26,31.26,0,0,1-3.53.47.92.92,0,0,1-.89-.73,2.21,2.21,0,0,1-1.4.39,1.27,1.27,0,0,1-1.34-.61,7.77,7.77,0,0,1-2.51-.28c-.67-.33-.45-1.23-.45-1.23-1.5.28-1.56-.61-1.56-.61l-1.9.22a2,2,0,0,1-1.6-.84s.91-6.43,1.86-11,3.65-12,6.39-15.33l9,0" style="opacity:0.15"></path><path d="M322.12,99.3s.75.5,2.15-.39a1.21,1.21,0,0,0,1.63.3c1.06-.56,1.86-1.16,2.25-1.39,0,0-.1-.89-.28-2.23a25.21,25.21,0,0,1-2.56,1.35c-1.07.43-1-.44-1-.44-1.54,1-2.29.26-2.29.26a3.27,3.27,0,0,1-3,.78c-1.34-.17-3.51.73-4.3.56a1.68,1.68,0,0,1-1.08-1,2.81,2.81,0,0,1-1.53.38,1.28,1.28,0,0,1-1.13-.73,3.92,3.92,0,0,1-2,.18c-.81-.26-.85-.86-.85-.86-1.19.14-1.45-.64-1.45-.64a5.44,5.44,0,0,1-3.36-.52c-.26,1.69-.43,2.86-.43,2.86a2,2,0,0,0,1.6.84l1.9-.22s.06.89,1.56.61c0,0-.22.9.45,1.23a7.77,7.77,0,0,0,2.51.28,1.27,1.27,0,0,0,1.34.61,2.21,2.21,0,0,0,1.4-.39.92.92,0,0,0,.89.73A31.26,31.26,0,0,0,318,101c1.4-.16,2.44.28,3.19-.23A2.48,2.48,0,0,0,322.12,99.3Z" style="opacity:0.15"></path><path d="M310.08,78.35s-2.37,4.46-4.5,20.14l.75-.09C306.38,96.93,307.83,84,310.08,78.35Z" style="opacity:0.1"></path><path d="M307.17,99.06a2.35,2.35,0,0,0,.72,0,93.74,93.74,0,0,1,1.5-12.55S308.45,88.72,307.17,99.06Z" style="opacity:0.1"></path><path d="M312.73,78.86a111.9,111.9,0,0,0-2.65,21.66c.44,0,.77,0,.77,0A141.67,141.67,0,0,1,312.73,78.86Z" style="opacity:0.1"></path><path d="M313.59,91.24c0-2.42.31-6.11.31-6.11a79.5,79.5,0,0,0-.93,9.38,51.62,51.62,0,0,0,.1,6.48,1.28,1.28,0,0,0,.52-.25C313.45,99.18,313.6,93.66,313.59,91.24Z" style="opacity:0.1"></path><path d="M317.32,78.81a41.87,41.87,0,0,1,1.15,9.2c0,2.64,0,10.33.22,11.34,0,0,.21-5.48.26-8.16A34.77,34.77,0,0,0,317.32,78.81Z" style="opacity:0.1"></path><path d="M322.71,99.44c-.32-9.52-2.18-16-2.93-17.71a83.12,83.12,0,0,1,2.34,17.57A1.09,1.09,0,0,0,322.71,99.44Z" style="opacity:0.1"></path><path d="M324.81,99.32a67.62,67.62,0,0,0-.53-9.13,29.66,29.66,0,0,0-1.56-5.82,53.34,53.34,0,0,1,1.24,6,68,68,0,0,1,.31,8.56A1.15,1.15,0,0,0,324.81,99.32Z" style="opacity:0.1"></path><path d="M317.85,71.77a44.39,44.39,0,0,1,3.4,10.33,37.37,37.37,0,0,0-3-10.36Z" style="opacity:0.1"></path><path d="M315.75,71.83a55.64,55.64,0,0,0-.9,9.19,33.63,33.63,0,0,1,.42-9.2" style="opacity:0.1"></path><path d="M313,71.72a30.48,30.48,0,0,0-3.47,6.63c.37-2.36,2.85-6.32,3-6.67Z" style="opacity:0.1"></path><path d="M311.56,55.7a11.82,11.82,0,0,0,8.72.17V59.1a4.36,4.36,0,0,1-4.36,4.36h0a4.36,4.36,0,0,1-4.36-4.36Z" style="fill:#BA68C8"></path><path d="M311.56,55.7a11.82,11.82,0,0,0,8.72.17V59.1a4.36,4.36,0,0,1-4.36,4.36h0a4.36,4.36,0,0,1-4.36-4.36Z" style="opacity:0.45"></path><path d="M316,62c.58-1.4,2.91-5.18,4.29-6.15a11.12,11.12,0,0,1,3,1.74,11.4,11.4,0,0,1,2.49,5.3L322,65.54a8.14,8.14,0,0,1-2,4.09L316,71.11Z" style="fill:#BA68C8"></path><path d="M316,62c.58-1.4,2.91-5.18,4.29-6.15a11.12,11.12,0,0,1,3,1.74,11.4,11.4,0,0,1,2.49,5.3L322,65.54a8.14,8.14,0,0,1-2,4.09L316,71.11Z" style="opacity:0.18"></path><path d="M327,66.09a18.21,18.21,0,0,1-5,3.07c-1,.23-1.11-.42-1.11-.42h0a9.31,9.31,0,0,0,1.23-3.2c.42-.29,1.84-2,2.54-2.49a4.89,4.89,0,0,1,1.06-.6,1,1,0,0,1,.48,0c.48.12.56.74.72,1.43S327.65,65.35,327,66.09Z" style="fill:#BA68C8"></path><path d="M321.92,56.65c-.81-.44-1.64-.78-1.64-.78-1.38,1-3.71,4.75-4.29,6.15v4.19C317.2,62.09,320.79,57.73,321.92,56.65Z" style="opacity:0.18"></path><path d="M317.37,71.11c.09-2.31-.05-7-1.75-9.74s-4.06-5.67-4.06-5.67a15.05,15.05,0,0,0-3.41,1.65c-1.27.95-2.07,3.12-2.92,5.67,0,0,3.87,1.94,4.39,2.64a10.06,10.06,0,0,0,.52,2.37,9.41,9.41,0,0,0,.94,1.6Z" style="fill:#BA68C8"></path><path d="M317.37,71.11c.09-2.31-.05-7-1.75-9.74s-4.06-5.67-4.06-5.67a15.05,15.05,0,0,0-3.41,1.65c-1.27.95-2.07,3.12-2.92,5.67,0,0,3.87,1.94,4.39,2.64a10.06,10.06,0,0,0,.52,2.37,9.41,9.41,0,0,0,.94,1.6Z" style="opacity:0.15"></path><path d="M310.27,68.3a.87.87,0,0,1-.65.57c-.57.19-.88-.32-1.95-.7a14.91,14.91,0,0,1-3.6-1.9c-.35-.4,0-1.31.16-1.91s-.19-1.18.4-1.58a1.09,1.09,0,0,1,.74-.17,3.13,3.13,0,0,1,1.77.88c.48.43,1.18,1,1.83,1.54a3,3,0,0,1,.65.64,10,10,0,0,0,.52,2.35A2.39,2.39,0,0,0,310.27,68.3Z" style="fill:#BA68C8"></path><path d="M309.15,68.56c.24.09.55,0,.26-.17a11.31,11.31,0,0,1-1.51-.77c-1-.64-2.44-2-3.08-2.08s-.83.36-.19.85a15.78,15.78,0,0,0,2.47,1.34C307.72,68,308.93,68.43,309.15,68.56Z" style="opacity:0.2"></path><path d="M321.91,68.75c-.23.1-.54.07-.28-.16a9.25,9.25,0,0,0,1.45-.89c.91-.72,2.26-2.21,2.89-2.33s.86.3.27.83a15,15,0,0,1-2.35,1.54C323.29,68.08,322.12,68.6,321.91,68.75Z" style="opacity:0.2"></path><path d="M311.56,55.7a16.69,16.69,0,0,0-1.76.71,51.05,51.05,0,0,1,4.59,7.08c1,1.94,1.36,5.88,1.45,7.62h1.53c.09-2.31-.05-7-1.75-9.74S311.56,55.7,311.56,55.7Z" style="opacity:0.15"></path><path d="M309.62,65.67c-.13-.75-.1-2.62-.28-3.26s-1.15-1-.79-.38a8,8,0,0,1,.73,2.27A4.05,4.05,0,0,0,309.62,65.67Z" style="opacity:0.15"></path><path d="M322,65.54c.12-.75.09-2.62.27-3.26s1.15-1,.8-.38a8,8,0,0,0-.74,2.27A4.05,4.05,0,0,1,322,65.54Z" style="opacity:0.15"></path><path d="M311.08,69.63V71.5a28.61,28.61,0,0,0,4.84.33,14.13,14.13,0,0,0,4.14-.38l0-1.82A24.75,24.75,0,0,1,311.08,69.63Z" style="fill:#37474f"></path><path d="M316.22,64.36a.38.38,0,0,1-.38.38.39.39,0,1,1,0-.77A.38.38,0,0,1,316.22,64.36Z" style="fill:#37474f"></path><path d="M316.68,66.58a.38.38,0,1,1-.38-.38A.38.38,0,0,1,316.68,66.58Z" style="fill:#37474f"></path><circle cx="316.52" cy="68.67" r="0.38" style="fill:#37474f"></circle></g></g></g><g id="freepik--character-2--inject-162"><g id="freepik--Character--inject-162"><g id="freepik--Bottom--inject-162"><path d="M191.73,368.88c.86-13.56-.74-25,.94-47.81.23-5.84.57-12.1,1.07-17.65,1.7-18.69,1.88-20.8,2.22-24.4,0,0-1.16-34.5.9-75.42,1-19.25,6.91-27.34,11.57-37.47l56.52,4.6c5.41,25.35,2.75,79.61,2,105.61-.2,7.55-1,15.1-1.59,22.63-.92,11-.61,22.83-1.62,33.86-.46,4.95-.48,8.77-1,14.66-.37,4.45-1,11.18-.86,16.19.11,4.15,2.06,5.39,4.64,8.62a61.37,61.37,0,0,0,9,8.57c1.19,1,2.27,2,3.48,3,2.14,1.71,4.4,3.24,6.61,4.84s4.08,2.74,4.14,5.71a4.31,4.31,0,0,1-2.12,3.34,13.85,13.85,0,0,1-6.23,1.83c-5,.51-10.25.05-14.72-2.29-5-2.6-8.62-7.33-13.7-9.72-2.05-1-4.27-1.52-6.4-2.29a7.47,7.47,0,0,1-5-5.44c-.65-3.11.74-5.53,1.49-8.52a32,32,0,0,0,.43-10.55c-.44-3.59-.77-7.2-1.22-10.8-.81-6.48-1.11-13-1.89-19.46-1-8.6-2.34-17.29-2.66-26-.34-9.47,1.14-25.51,1.14-25.51l-5.29-40.21s-4.25,23.61-8.39,39.71c-3.36,13.11-4.35,36-8.17,52.13-3.73,18.6-6.17,33-7.66,41.47s-1.31,19.41-1.9,32.24c-.09,2-.95,15.1-8,13.85-3.78-.66-13.29-3.21-14.21-15.87C184.85,396.6,191,380.79,191.73,368.88Z" style="fill:#b16668"></path><path d="M243.75,366.29c1.58,2.2,6.6,3.72,11.26,3.24,7.06-.72,7-4.14,7-4.14l0-1.27s.46-.37,1.14,1.61,5.09,7.35,7.82,10.19,10.76,8.58,13.19,10.48,6.85,3.09,7,7.24-5.5,6.72-12.72,6.57-11.21-1.77-14.76-4.43-8-6.69-10.68-7.71-9.06-2.32-11-5.77c-1.69-3-1-5.43-.11-8.61,1.54-5.39.77-8.78,2-8.55Z" style="fill:#455a64"></path><path d="M253.26,386.57a5.33,5.33,0,0,0,.23-2.35c-.3-3.34-2.32-6.33-4.82-8.58a17,17,0,0,0-6.43-3.69c-.12.56-.26,1.13-.43,1.74-.91,3.18-1.58,5.61.11,8.61,1.84,3.25,7.62,4.59,10.52,5.59A4.5,4.5,0,0,0,253.26,386.57Z" style="fill:#37474f"></path><path d="M291.1,393.64c-.1-3.47-3.2-4.87-5.64-6.35a21.5,21.5,0,0,0-9.57,2.81,12.37,12.37,0,0,0-4.74,4.59,7.61,7.61,0,0,0-.9,4.43,31.53,31.53,0,0,0,8.13,1.09C285.6,400.36,291.23,397.79,291.1,393.64Z" style="fill:#37474f"></path><path d="M191.81,367.6c-1,0-.75,1.36-1.1,4.48s-1.71,11.67-2.81,16.18c-1.45,5.93-3.42,12.44-2.94,17s1.4,7.41,5.06,11,9.85,4.78,12.38,4.29c3.56-.68,5.22-4.21,5.5-13.1s.67-18.91,1.07-24.67,2.63-12.44.89-13.23l-.46,2.61s-1.11,2-8.38,1.28-9.29-4.53-9.29-4.53Z" style="fill:#455a64"></path><path d="M200.16,405c-6.74-2.86-13-4-15.27-.72,0,.33,0,.66.07,1,.47,4.55,1.4,7.41,5.06,11s9.85,4.78,12.38,4.29c3.16-.61,4.83-3.47,5.35-10.33C206.29,408.21,203.7,406.5,200.16,405Z" style="fill:#37474f"></path><path d="M207,166.1c-6.51,11.32-11.84,15.47-12.12,49.53-.31,37.71,0,56.61-.2,60.71s.08,7.17-2.43,27.35-.88,44.22-.88,44.22,3.06,3.87,10.78,4.72c7.12.79,11.27-2,11.27-2s7.5-34.34,10.45-46.46S233.45,247,233.45,247l4,32.59s-2.41,11.11-.59,28.89,4.69,36,4.69,36a37,37,0,0,0,11.5,2.08,19.64,19.64,0,0,0,9.84-2.31s5.68-53.41,6.09-73.52,3-70-2.75-99.89Z" style="fill:#BA68C8"></path><path d="M207,166.1c-6.51,11.32-11.84,15.47-12.12,49.53-.31,37.71,0,56.61-.2,60.71s.08,7.17-2.43,27.35-.88,44.22-.88,44.22,3.06,3.87,10.78,4.72c7.12.79,11.27-2,11.27-2s7.5-34.34,10.45-46.46S233.45,247,233.45,247l4,32.59s-2.41,11.11-.59,28.89,4.69,36,4.69,36a37,37,0,0,0,11.5,2.08,19.64,19.64,0,0,0,9.84-2.31s5.68-53.41,6.09-73.52,3-70-2.75-99.89Z" style="fill:#fff;opacity:0.5"></path><path d="M240.61,208.44,233.45,247l4,32.59-1.32-33,6.34-31.6c4.87-1.06,16-6.65,19.22-14.89C254.07,207.75,240.61,208.44,240.61,208.44Zm-22.2-23.06c.93-3.23,1.9-6.45,3-9.68a48.14,48.14,0,0,0-4.56,9.14,90.14,90.14,0,0,0-3.1,9.73c-.84,3.29-1.54,6.62-2,10a67.75,67.75,0,0,0-.88,10.16c.88-3.29,1.7-6.56,2.52-9.83s1.62-6.53,2.48-9.78S217.51,188.61,218.41,185.38Zm-4.82-2.54c1.14-2,2.28-3.93,3.33-6a36.43,36.43,0,0,0-4.71,5.07,50.3,50.3,0,0,0-3.85,5.73,44.28,44.28,0,0,0-3,6.26,27.27,27.27,0,0,0-1.69,6.72l3.21-6c1.09-2,2.17-3.94,3.31-5.89S212.47,184.81,213.59,182.84ZM210.33,310.2c-1.61,10.52-2.87,23-4.7,33.53,2.64-10.32,5.27-22.89,6.94-33.39,2.51-15.74,6.56-50.33,7.8-60.9s2.25-21.16,3.11-31.77c-1.68,10.51-3.22,21-4.76,31.55S212.79,294.12,210.33,310.2ZM263,260.08c.12,4.61.29,9.25.13,13.81s-.57,9.21-.89,13.82l-1,13.86q-1,13.86-1.66,27.75,1.9-13.77,3.33-27.61c1-9.22,1.84-18.42,2.35-27.74.16-9.37-.45-18.6-1.09-27.86s-1.59-18.48-2.83-27.67l1.17,27.77C262.66,250.83,262.86,255.45,263,260.08Z" style="fill:#BA68C8;opacity:0.5"></path></g><g id="freepik--Top--inject-162"><g id="freepik--Arm--inject-162"><path d="M278.5,204.28a16.45,16.45,0,0,1,1.8,4.07c.89,3.53-.26,7.22-.81,10.83a3.27,3.27,0,0,0,.75,3.22.78.78,0,0,0,.72.28c.23-.06.36-.28.48-.49a21.22,21.22,0,0,0,1.88-4.73,22.29,22.29,0,0,1,.09,4.62,7.87,7.87,0,0,0,.16,3.65c.45,1.14,1.88,2,2.94,1.37a3.19,3.19,0,0,0,1.16-2c.24-.93.49-1.86.73-2.79a34.68,34.68,0,0,0,.87-3.92,17.53,17.53,0,0,0-3.83-13.48,6.86,6.86,0,0,0-3-2.29A4.28,4.28,0,0,0,279,203C278.34,203.35,278.12,203.61,278.5,204.28Z" style="fill:#9a4a4d"></path><path d="M291.05,209.85c-.67-4.75-1.12-9.74-2.3-14.2s-4.12-21.72-5.28-26.5c-1.51-6.29-3.33-10.2-4.52-14.07-1.33-4.34-2.53-10.84-6.07-20-4-10.39-3.62-12.65-8.66-18-2.1-2.24-6.34-3.71-11.67-5-3-.75-1.35,31.69-1.35,31.69s6,10.26,8.59,14.82c1.35,2.38,5.09,11,9,20.87,2.28,5.66,4.7,11.33,4.7,11.33,1.09,3.54,1.42,4.88.82,7.77a66.39,66.39,0,0,0-1.29,11.09c-.1,2.59-.09,4.44,0,6.37.06,1.56,1.26,2,2.55.26,1.53-2,1.27-3.75,1.86-5.71.73-2.45,2.09-6.58,3.21-5.78s2.4,4,3.91,6a9.61,9.61,0,0,1,2.22,6.86c-.07,3.06-1.38,7.21-.72,9.76s2.19,3,2.67,1.92,1.8-7.4,2.24-9.58A29,29,0,0,0,291.05,209.85Z" style="fill:#b16668"></path></g><path d="M196,191.37c2-15.46,8.77-21.11,9-26.37.58-11-5-22.07-5.78-28.27-1.74-13.51,4.79-21.48,8-24.07,0,0,4.85-1,7.86-1.48,2.38-.37,4.21-.61,7.35-1.31a44.12,44.12,0,0,1,16.11-.7c1.46.18,6.57,1.25,9.2,1.92,2.08.53,4.79.92,4.8.92a56.05,56.05,0,0,1,11.53,15.78c5.1,10.81,4.23,17.13,4.41,29.22.28,19.18.56,36.63.56,36.63C255.09,201.84,213.58,202.11,196,191.37Z" style="fill:#37474f"></path><path d="M223.37,102a8.87,8.87,0,0,0,2.44.65c2.85.24,5.34-2.27,8.2-2.21,1.78,0,3.37,1.07,5.11,1.45a7.2,7.2,0,0,0,5.72-1.22c1.42-1,2.49-2.63,4.16-3.18,2.61-.87,5.89,1.09,8.05-.62,1.93-1.52,1.42-4.9,3.37-6.39.94-.72,2.23-.8,3.25-1.41a3.62,3.62,0,0,0,1.6-3.88c-.27-1.07-1-2-.94-3.15s1-1.85,1.44-2.82a4.53,4.53,0,0,0-.22-3.72c-.81-1.72-2.27-2.6-3.33-4.05-.79-1.07-.73-2.06-1-3.33a2.71,2.71,0,0,0-1.69-2.25,5,5,0,0,1,3.7,4.76,4.29,4.29,0,0,0,1.79-4.61c-.37-1.35-1.42-2.61-1.14-4a10.48,10.48,0,0,1,1-2.06,4.21,4.21,0,0,0-.28-3.64,5.9,5.9,0,0,0-2.8-2.44,5.85,5.85,0,0,1-2-1.09c-.74-.78-.79-2-1.29-2.94a4.26,4.26,0,0,0-2.68-2,9.47,9.47,0,0,0-3.4-.19,4.84,4.84,0,0,1,4.71-.08,6.69,6.69,0,0,0-4.84-3,12.51,12.51,0,0,0-5.24.15c-2.49.61-4.9,2.85-7.5,2.56-2.09-.23-3.71-1.94-5.69-2.68a6.66,6.66,0,0,0-7.14,1.79,14.94,14.94,0,0,1-1.94,2.25c-2.11,1.62-5.24.43-7.77,1.28a6.65,6.65,0,0,0-3.75,3.82,8.49,8.49,0,0,0-.93,3.87c-.1-1.06-4.58-.05-5,.1A3.91,3.91,0,0,0,205,59.56c-.41.81-.43,1.78-.86,2.57-.63,1.15-2,1.69-2.94,2.58a5.06,5.06,0,0,0-1.45,4.9c.37,1.43,1.36,2.63,1.88,4a1.27,1.27,0,0,1,.1.69c-.1.38-.5.59-.84.79a4.76,4.76,0,0,0-1.26,7c1,1.26,1.92,1.81,1.8,3.51-.16,2.15-.59,4.59.87,6.39A10.05,10.05,0,0,0,205,94.2a3.82,3.82,0,0,1,.14-3.25,6.81,6.81,0,0,0,1.49,2.87c1.77,1.72,5,1.18,6.66,3,.68.73,1,1.74,1.63,2.5a5.61,5.61,0,0,0,4,1.61A13.23,13.23,0,0,1,223.37,102Z" style="fill:#263238"></path><path d="M221.61,105c.07-3.31,0-11.56,0-11.56a5.62,5.62,0,0,1-6.9-1.4c-3.83-4-4.19-8.35-2.09-11.13,2.33-3.07,7.45-1.88,9.65,1.88,3.34.81,4.07-2.33,1.55-7.23a12.29,12.29,0,0,0,3.3-11.16c8,1,9.43-5.23,23.84-3.52,1.85,2.81,5.5,7.42,5.32,22.54-.09,7.79-1.33,15.23-5.88,17.84a16.29,16.29,0,0,1-9.5,1.73l.17,3.57h0c.07,1.79.63,3,1.78,3.28l3.82,1s4.53,4.61-6.56,6c-16.55,2.1-25-5.66-25-5.66l3.26-.51C221.3,110.2,221.55,108.3,221.61,105Z" style="fill:#b16668"></path><path d="M236.82,90.06l6,2a3.08,3.08,0,0,1-3.9,2.11A3.28,3.28,0,0,1,236.82,90.06Z" style="fill:#9a4a4d"></path><path d="M237.19,91.44a3.45,3.45,0,0,1,3.43,2.71,3,3,0,0,1-1.74,0,3.21,3.21,0,0,1-2.15-2.62A2.32,2.32,0,0,1,237.19,91.44Z" style="fill:#f28f8f"></path><path d="M253.16,74.12l-4.4-2a2.31,2.31,0,0,1,3.11-1.26A2.53,2.53,0,0,1,253.16,74.12Z" style="fill:#263238"></path><path d="M231.75,74.15l4.62-1.58a2.34,2.34,0,0,0-3-1.57A2.58,2.58,0,0,0,231.75,74.15Z" style="fill:#263238"></path><polygon points="241.49 74.68 242.99 87.22 249.51 84.57 241.49 74.68" style="fill:#9a4a4d"></polygon><path d="M248,77.45a2.07,2.07,0,0,0,1.83,2.2A1.94,1.94,0,0,0,252,77.89a2.07,2.07,0,0,0-1.83-2.2A1.93,1.93,0,0,0,248,77.45Z" style="fill:#263238"></path><path d="M233.41,77.89a2.08,2.08,0,0,0,1.84,2.21,1.94,1.94,0,0,0,2.16-1.76,2.06,2.06,0,0,0-1.83-2.21A2,2,0,0,0,233.41,77.89Z" style="fill:#263238"></path><path d="M240.93,103c-7.63-.83-14.92-3.38-16.61-6.88,0,0-.06,3.8,3,5.65,4.32,2.58,13.71,3.93,13.71,3.93Z" style="fill:#9a4a4d"></path><g id="freepik--arm--inject-162"><path d="M195.41,223a60.93,60.93,0,0,1-1.55-6.12,19.61,19.61,0,0,0-3.29-7.55c-.59-.84-1.19-1.64-1.71-2.52a3.24,3.24,0,0,1-.18-2.32c.1-.69,5.53-36,5.53-36S204.32,154,210.3,144.54c8.53-11.72,3.29-28.72-1.29-32.3-2.36.82-3.06.37-8,3.84-3.49,2.44-5,4.81-8.47,11.16-6.37,11.7-12.54,24.49-15.54,29.49-2.08,3.48-3.79,7-3.84,15.05,0,8.43.15,30.82,0,32.29-.34,4.75-2.11,11.41-1.63,14.24s1.2,6.36,1.82,8.6A5.17,5.17,0,0,0,176,230a36.69,36.69,0,0,0,2.82,6.25,3.72,3.72,0,0,0,3.39,1.81,47.72,47.72,0,0,0,2,5.07c1.14,2.53,1.92,1.88,2.44,1.42a4.33,4.33,0,0,0,.62-4.14c-.57-1.46-1.13-3.5-1.64-5.12a40.77,40.77,0,0,1-.82-4s.57,1.55,1.09,2.73,1.13,2.8,2.24,5.27,2,3.72,2.92,3.28c1.12-.54,1.54-2.57.91-4.17a63.6,63.6,0,0,1-2.75-8.64c-.21-1.74-.64-3.47-.72-5.22a14.83,14.83,0,0,1-.13-3.58c.35-1.65,2,1.35,2.14,1.69.46.92.8,1.93,1.32,2.82a4.11,4.11,0,0,0,4.4,2.3.83.83,0,0,0,.58-.3.94.94,0,0,0-.07-.87C196.23,225.44,195.8,224.25,195.41,223Z" style="fill:#b16668"></path><path d="M182.17,238.1a24,24,0,0,1-2.53-6.11,29.63,29.63,0,0,1-1-6.54c.43,2.17.86,4.31,1.46,6.42A49.64,49.64,0,0,0,182.17,238.1Z" style="fill:#9a4a4d"></path><path d="M176,230a11.59,11.59,0,0,1-1.15-3.1,15.12,15.12,0,0,1-.41-3.29c.35,1.06.56,2.13.83,3.19Z" style="fill:#9a4a4d"></path><path d="M184.79,231.29c-.77-2.36-1.64-5.88-1.64-5.88a22.34,22.34,0,0,0,1.92,7.77Z" style="fill:#9a4a4d"></path></g></g></g></g><g id="freepik--character-1--inject-162"><g id="freepik--character--inject-162"><g id="freepik--bottom--inject-162"><path d="M393.07,388.35c1,1,5.1-.72,7.58-2.65s9.21-5,11.86-6.43a68,68,0,0,1,11.25-4.13c6.14-1.44,8.83-1.65,11.82-4.75a6.58,6.58,0,0,0,1.9-5.15s-2.36,2.87-11.61,1.45-14.15-4-17.5-3.54-12.08,3-17.84-1.52c-1.8-1.41-1-3.59-.28-3.84A5,5,0,0,0,388,361c-.26.8-.58,1.89-.81,2.62-.6,1.87-1.58,5.4-4.07,7.13-1.37.94-1.85,1.23-1.36,2.34Z" style="fill:#37474f"></path><path d="M435.46,361.25c2.74,2.31,2.42,3.54,2.1,5.32s-1.09,2.31-2.9,2.95c-2.27.81-6.37.82-10.39,0s-12.37-4.05-14.91-3.81-6.76,2-11.87,1.46S390.3,365.25,389,364a3.28,3.28,0,0,1-1.06-2.91s.06-3.17,4.15-4.17C395.64,356,435.46,361.25,435.46,361.25Z" style="fill:#263238"></path><path d="M367.86,378.57l5.49,22.26L385,393.5l4.67-3.09c1.89-1.13,4.95-3,7.94-4.73,1.91-1.13.13-2.14,1.48-3.64s4.77-2.72,4.77-2.72a24.16,24.16,0,0,0-6.47.89c-4.11,1.16-5.27,1-7.24-1.24s-3.92-7.61-7.85-6.06Z" style="fill:#ffa8a7"></path><path d="M437.48,365.24c.87-3.14-7.56-9.63-17.41-9.94s-9,1.82-15.92,1.33-10.13-1.06-13.9,1.16c-1.84,1.07-2.38,4.82,4.33,6.43s11.51-.65,14.65-.83S418,366,427,367.46C434.29,368.6,436.74,367.89,437.48,365.24Z" style="fill:#e0e0e0"></path><path d="M433.37,397c1,1,5.1-.72,7.58-2.64s9.2-5,11.85-6.44a68.22,68.22,0,0,1,11.25-4.12c6.15-1.45,8.83-1.66,11.83-4.76a6.55,6.55,0,0,0,1.89-5.15s-2.35,2.88-11.6,1.45-14.16-4-17.5-3.54-12.09,3-17.85-1.52c-1.79-1.41-1-3.58-.27-3.84a4.9,4.9,0,0,0-2.28,3.23c-.27.8-.58,1.89-.82,2.63-.59,1.86-1.57,5.39-4.06,7.12-1.37.95-1.85,1.23-1.36,2.35Z" style="fill:#455a64"></path><path d="M475.76,369.91c2.74,2.3,2.42,3.53,2.1,5.31s-1.09,2.31-2.9,3c-2.27.8-6.37.81-10.39,0s-12.38-4.05-14.91-3.81-6.76,2-11.87,1.46-7.19-1.91-8.49-3.17a3.28,3.28,0,0,1-1.05-2.92s.06-3.17,4.15-4.16C435.94,364.69,475.76,369.91,475.76,369.91Z" style="fill:#263238"></path><path d="M408.16,387.23l5.48,22.26,11.62-7.34,4.66-3.09,7.95-4.73c1.91-1.13.13-2.14,1.48-3.64s4.77-2.72,4.77-2.72a24.25,24.25,0,0,0-6.48.89c-4.1,1.16-5.26,1-7.23-1.24s-3.93-7.6-7.85-6.06Z" style="fill:#ffa8a7"></path><path d="M477.77,373.89c.88-3.14-7.55-9.63-17.4-9.94s-9,1.83-15.93,1.33-10.12-1.06-13.89,1.16c-1.84,1.07-2.38,4.82,4.33,6.43s11.51-.64,14.65-.83,8.73,2.65,17.78,4.07C474.59,377.25,477,376.54,477.77,373.89Z" style="fill:#e0e0e0"></path><g id="freepik--Leg--inject-162"><path d="M401.65,373.47c-1.72-6.16-5.87-6.76-5.87-6.76L373.69,372s52.73-29.41,52.71-35.46l-58.48-16.83s-38.7,44.2-45.86,60.46c-4.23,9.58-4.89,16.82-1.06,21.72,6.49,8.3,16.41,7.76,33.18,2.44,17-5.39,43.63-13.61,43.63-13.61S404.35,383.2,401.65,373.47Z" style="fill:#37474f"></path><path d="M402.05,375.27a17.72,17.72,0,0,0-.4-1.8c-.11-.38-.23-.74-.35-1.09l-.11-.26c-.09-.24-.19-.48-.29-.7a1.51,1.51,0,0,0-.11-.22c-.1-.22-.21-.44-.32-.63a1.08,1.08,0,0,0-.11-.18c-.11-.2-.23-.39-.35-.57l-.09-.12c-.13-.18-.26-.36-.39-.52l-.08-.09c-.14-.17-.27-.32-.41-.46l-.07-.07-.42-.39-.06-.05c-.14-.12-.28-.24-.42-.34l0,0c-.15-.1-.28-.2-.42-.28l0,0c-.14-.08-.27-.16-.4-.22l0,0-.37-.17h0l-.31-.13h0l-.26-.08h0l-.18-.05h0l-.1,0h-.05l-3.19.77L373.69,372h0s5.2-5.68,9.95-11.85v0h0c.19-.25.39-.5.58-.76h0l0,0,.54-.73,0,0c.86-1.15,1.68-2.3,2.44-3.42l0-.07c.25-.37.49-.73.72-1.09l-21.13-19.86c-2.3,12.07,6.12,22.95,6.12,22.95s-20.47,25.47-28.36,37c-6.19,9-14.36,10.19-20.34,7.14a10.1,10.1,0,0,1-5.83-8,12.87,12.87,0,0,0,2.5,8.73c6.49,8.3,16.41,7.76,33.18,2.44,17-5.39,43.61-13.61,43.63-13.61h0s5.37-6.21,4.37-14.61C402.14,375.86,402.1,375.56,402.05,375.27Z" style="fill:#263238"></path><path d="M378.39,380.66c7-6.73,24.93-14.75,28.88-16.6a7,7,0,0,0-4.64-2.92h0l-10.76,3.65-10.76,3.65S368.39,388,360.05,390A37.65,37.65,0,0,0,378.39,380.66Z" style="opacity:0.15"></path></g><g id="freepik--Le--inject-162"><path d="M421.39,393a18.65,18.65,0,0,0-5.38-8.9l-3.53,1.34s8.41-11,14.22-19.14c9.69-13.58,12.21-31.25,4.12-47.61l-40.21,10.61-22.69-9.52c-6.47,23.16,12.33,37.9,12.33,37.9s-18.76,29.72-23.13,40.66c-4.11,10.3-3.46,18.6.8,23.14,7.2,7.68,18.51,9.45,34.14,1.38A279.36,279.36,0,0,0,422,404.31S423.35,400.94,421.39,393Z" style="fill:#37474f"></path><path d="M416,384.07l-3.53,1.34h0s-17.5,21.07-25.84,23.12A34.24,34.24,0,0,0,405,399.16C410.11,393.89,416,384.07,416,384.07Z" style="fill:#263238"></path></g><path d="M419.72,332.53a25.06,25.06,0,0,1,.84,5.14c0,.43.06.87.1,1.3l.09,1.29c.05.87.12,1.73.14,2.6s.08,1.73.1,2.59c0,.44,0,.87,0,1.3s0,.87,0,1.3a43.93,43.93,0,0,1-.26,5.23,14.91,14.91,0,0,0,1.5-5.15,30.86,30.86,0,0,0,.2-5.35,31.53,31.53,0,0,0-.7-5.3c-.11-.44-.21-.88-.33-1.31s-.28-.86-.43-1.28A7.77,7.77,0,0,0,419.72,332.53Zm-3.67,4.79a20.84,20.84,0,0,0-1.93-7.32,37,37,0,0,1,.69,7.39,73,73,0,0,1-.35,7.39c-.09,1.23-.24,2.46-.39,3.68-.08.62-.14,1.23-.23,1.85s-.17,1.22-.26,1.84c-.37,2.46-.78,4.91-1.24,7.38a36.1,36.1,0,0,0,2.46-7.14c.31-1.23.54-2.47.76-3.71s.37-2.5.49-3.76A41.94,41.94,0,0,0,416.05,337.32ZM360.67,414.7l-.31,1.72-.18,1.75-.09.87c0,.29,0,.58,0,.87v1.75a49.91,49.91,0,0,1,3.59-13.29c.2-.54.44-1.06.67-1.59l.68-1.58c.45-1.06,1-2.09,1.45-3.13,1-2.08,2-4.14,3.12-6.16,2.15-4.08,4.47-8.07,6.82-12.05L383.59,372q-4.38,5.43-8.22,11.25t-7.17,12a89.57,89.57,0,0,0-5.68,12.78A49.32,49.32,0,0,0,360.67,414.7Zm-33.06-21.17-.38,1.71-.19.86c0,.29-.07.58-.11.87l-.19,1.73a50.22,50.22,0,0,1,5.1-12.78c.26-.51.56-1,.85-1.5l.86-1.5c.57-1,1.2-2,1.8-2.94,1.23-1.94,2.49-3.87,3.82-5.76,2.61-3.79,5.37-7.49,8.16-11.17l8.5-11c-3.32,3.25-6.46,6.67-9.46,10.22s-5.85,7.23-8.51,11.05a90.79,90.79,0,0,0-7.12,12,50.28,50.28,0,0,0-2.62,6.51Z" style="fill:#263238"></path></g><g id="freepik--top--inject-162"><path d="M281.16,187.58a11.53,11.53,0,0,0,1,5.12c.78,2.19,1.26,3.58,1,4.83s-2.35,8.17-3.22,9.58a12.78,12.78,0,0,1-1.61,2.15,4.59,4.59,0,0,0,1.45,2.57c1.27,1.15,3.8,2.9,3.8,2.9s3.93-9.38,3.55-14.94S285.57,191.47,281.16,187.58Z" style="fill:#f28f8f"></path><path d="M295.94,228.4c2,4.43,6.54,16.4,15.35,31.45,4.3,7.37,8.58,6.66,16,6.18,10.88-.7,39.4-3.59,39.4-3.59l7.64-23.83c-5.51-.42-9-1-29.81,2.44-10.1,1.65-19.82,3-19.82,3-3.83-4.95-16.24-24.9-19.08-30s-3.39-9-5.22-12.3-2.39-3.23-6-5.57c-1.8-1.18-3.15-1.77-4.46-3.23a22.8,22.8,0,0,1-3.27-5.06c-1.87-.77-2.54,3-1.68,5.44s1.83,4.44,1,8.08-2.53,13.3-2.53,13.3a48.86,48.86,0,0,0,5.58,4.86C292.63,221.87,293.94,224,295.94,228.4Z" style="fill:#ffa8a7"></path><path d="M297.1,219.14a11.09,11.09,0,0,1-2.6,1.79,3.94,3.94,0,0,1-4.24-.56,15.35,15.35,0,0,1,2.42,2.28s.29.39,1.77-.29S297.1,219.14,297.1,219.14Z" style="fill:#f28f8f"></path><path d="M287,196.6l-1.3-.78a8.22,8.22,0,0,1,.38,5.61c-.51,2.25-1.69,6.42-2.53,9.31a3.84,3.84,0,0,0,2.08,1c1.87.08,2.61-3.19,2.61-3.19l1.13,1.25c2.4.72,3.2-.85,3-2.22a5,5,0,0,0-1.91-3.21c3.56,1.09,3.37-2.19,2.5-3.51-.71-1.07-3.82-3.53-6-5Z" style="fill:#f28f8f"></path><path d="M291.75,209.19a8.78,8.78,0,0,1,5.06,4.6c-1-3-1.76-3.9-4.71-5.61Z" style="fill:#f28f8f"></path><path d="M367.23,440.8c-9.55-5.16-19.3-9.74-19.3-16.05v-51c0-18.71.3-44.65-3.82-52s-8-11.25-21.11-15.45-33.65-12-33.65-40.35V182.67h-5.82V265.6c0,31,20.57,40.61,33.65,44.82s17,7,21.1,14.33,3.83,22.95,3.83,48.63c0,18.72-.28,47.88-.28,54.18s10,11.37,19.57,16.53Z" style="fill:#BA68C8"></path><path d="M323.33,309.27l-.46-.16-1,2.9.46.17Z" style="fill:#fff"></path><path d="M287.69,273.56l0-.47-3.66.25.06.48Z" style="fill:#fff"></path><path d="M288.42,278.31l-.07-.48-3.48.5c0,.15.07.31.1.47Z" style="fill:#fff"></path><path d="M289.66,283.19l-.1-.46-3.23.7.17.45Z" style="fill:#fff"></path><path d="M288.26,270.61v-.49H283.7l0,.49Z" style="fill:#fff"></path><path d="M290.54,280.39l-.1-.47L285.55,281c0,.16.09.31.14.46Z" style="fill:#fff"></path><path d="M288.26,260.1v-.48h-4.73v.48Z" style="fill:#fff"></path><path d="M291.49,285.22l-.13-.46-4.05,1.18.2.45Z" style="fill:#fff"></path><path d="M286.8,268v-.48h-3.23c0,.16,0,.32,0,.48Z" style="fill:#fff"></path><path d="M288.26,254.85v-.49h-4.73v.49Z" style="fill:#fff"></path><path d="M286.8,257.48V257h-3.27v.49Z" style="fill:#fff"></path><path d="M288.26,265.36v-.49h-4.73v.49Z" style="fill:#fff"></path><path d="M286.8,262.73v-.49h-3.27v.49Z" style="fill:#fff"></path><path d="M321.33,307l-.46-.17-1.5,4.28.46.16Z" style="fill:#fff"></path><path d="M307.22,301l-.39-.29-2.95,3.89.42.25Z" style="fill:#fff"></path><path d="M311.58,303.37l-.42-.24-2.35,4.06.45.21Z" style="fill:#fff"></path><path d="M308.43,303.73l-.39-.29-1.85,2.45.43.23Z" style="fill:#fff"></path><path d="M313.41,305.8l-.46-.17-1,2.91.46.18Z" style="fill:#fff"></path><path d="M286.8,252.22v-.48h-3.27v.48Z" style="fill:#fff"></path><path d="M316.37,305.29l-.45-.16-1.53,4.34.46.16Z" style="fill:#fff"></path><path d="M296.12,294.28l-.29-.39-2.51,1.85.32.36Z" style="fill:#fff"></path><path d="M293.5,286.87l-.21-.44-4.68,2.28.23.43Z" style="fill:#fff"></path><path d="M304.25,300.56l-.39-.29-2.2,2.9.4.27Z" style="fill:#fff"></path><path d="M293,290.05l-.29-.39-2.5,1.84.26.41Z" style="fill:#fff"></path><path d="M295.74,291.3l-.28-.39-3.76,2.76c.09.14.19.26.28.39Z" style="fill:#fff"></path><path d="M300,297.83l-.35-.34-2.24,2.36.37.32Z" style="fill:#fff"></path><path d="M303,297.81l-.39-.3-3.13,4.12.4.29Z" style="fill:#fff"></path><path d="M289.37,275.79l-.05-.47-4.95.52c0,.16.05.32.08.48Z" style="fill:#fff"></path><path d="M288.26,202.32v-.48h-4.73v.48Z" style="fill:#fff"></path><path d="M286.8,199.69v-.48h-3.27v.48Z" style="fill:#fff"></path><path d="M286.8,205v-.49h-3.27V205Z" style="fill:#fff"></path><path d="M288.26,212.83v-.49h-4.73v.49Z" style="fill:#fff"></path><path d="M286.8,210.2v-.49h-3.27v.49Z" style="fill:#fff"></path><path d="M288.26,197.07v-.49h-4.73v.49Z" style="fill:#fff"></path><path d="M288.26,207.57v-.48h-4.73v.48Z" style="fill:#fff"></path><path d="M298.55,294.82l-3.38,2.95.34.35,3.36-2.94Z" style="fill:#fff"></path><path d="M317.91,307.37l-1,2.95.3.1.16.05,1-2.94Z" style="fill:#fff"></path><path d="M286.8,194.44V194h-3.27v.48Z" style="fill:#fff"></path><path d="M286.8,189.19v-.49h-3.27v.49Z" style="fill:#fff"></path><path d="M288.26,191.82v-.49h-4.73v.49Z" style="fill:#fff"></path><path d="M288.26,186.08h-4.73v.48h4.73Z" style="fill:#fff"></path><path d="M288.26,223.33v-.48h-4.73v.48Z" style="fill:#fff"></path><path d="M288.26,239.09v-.48h-4.73v.48Z" style="fill:#fff"></path><path d="M286.8,236.46V236h-3.27v.48Z" style="fill:#fff"></path><path d="M286.8,241.72v-.49h-3.27v.49Z" style="fill:#fff"></path><path d="M286.8,215.45V215h-3.27v.48Z" style="fill:#fff"></path><path d="M288.26,233.84v-.49h-4.73v.49Z" style="fill:#fff"></path><path d="M286.8,247v-.48h-3.27V247Z" style="fill:#fff"></path><path d="M288.26,244.34v-.48h-4.73v.48Z" style="fill:#fff"></path><path d="M286.8,220.71v-.49h-3.27v.49Z" style="fill:#fff"></path><path d="M288.26,218.08v-.49h-4.73v.49Z" style="fill:#fff"></path><path d="M288.26,249.6v-.49h-4.73v.49Z" style="fill:#fff"></path><path d="M286.8,231.21v-.48h-3.27v.48Z" style="fill:#fff"></path><path d="M288.26,228.59v-.49h-4.73v.49Z" style="fill:#fff"></path><path d="M286.8,226v-.49h-3.27V226Z" style="fill:#fff"></path><path d="M346.76,387.61h-4.69v.48h4.69Z" style="fill:#fff"></path><path d="M346.88,350.87h-.12v0H342v.49l4.85,0Z" style="fill:#fff"></path><path d="M346.91,345.61l-5,0c0,.16,0,.32,0,.48l5,0Z" style="fill:#fff"></path><rect x="339.07" y="324.82" width="5.77" height="0.49" transform="translate(-98.26 155.32) rotate(-22.46)" style="fill:#fff"></rect><path d="M346.94,340.36l-5.32,0c0,.16,0,.32,0,.49l5.27,0Z" style="fill:#fff"></path><path d="M345.8,330.08l-.05-.48-5.48.62c0,.16.08.31.11.47Z" style="fill:#fff"></path><polygon points="339.96 328.73 344.09 327.51 343.95 327.05 339.82 328.26 339.96 328.73" style="fill:#fff"></polygon><path d="M346.76,392.86H342v.48h4.72Z" style="fill:#fff"></path><path d="M344.64,332.86l-.05-.48-3.8.42c0,.16,0,.32.08.48Z" style="fill:#fff"></path><path d="M346.76,377.1H342.1v.49h4.66Z" style="fill:#fff"></path><path d="M346.76,382.35h-4.67v.49h4.67Z" style="fill:#fff"></path><path d="M346.76,361.34h-4.65v.49h4.65Z" style="fill:#fff"></path><path d="M346.76,366.59h-4.65v.49h4.65Z" style="fill:#fff"></path><path d="M346.76,356.09h-4.67v.48h4.67Z" style="fill:#fff"></path><path d="M326.29,308.76l-.46-.16L324.31,313l.45.18Z" style="fill:#fff"></path><path d="M357.65,438.24l-.26-.41L353.93,440l.48.27Z" style="fill:#fff"></path><path d="M346.39,335.3l-.05-.48-5.17.58c0,.16,0,.33.05.49Z" style="fill:#fff"></path><path d="M353.07,435.42l-.25-.41-3.47,2.17.44.29Z" style="fill:#fff"></path><path d="M356.47,436.07l-.25-.41-4.67,2.93.46.28Z" style="fill:#fff"></path><path d="M362.57,441.09l-.26-.41-3.35,2.1.49.26Z" style="fill:#fff"></path><path d="M361.36,438.9l-.26-.41-4.66,2.92.49.26Z" style="fill:#fff"></path><path d="M351.72,432.9l-.29-.4-4.31,3.06.4.31Z" style="fill:#fff"></path><path d="M345.41,421.63l-3.56.45v.49l3.63-.46Z" style="fill:#fff"></path><path d="M346.78,419.56l0-.49-4.87.34v.49Z" style="fill:#fff"></path><path d="M348.35,432.07l-.28-.4-3,2.12.36.35Z" style="fill:#fff"></path><path d="M346.79,425l-.07-.48-4.88.74c0,.17,0,.32,0,.49Z" style="fill:#fff"></path><path d="M346.06,427.76l-.12-.47-4.06,1a4,4,0,0,0,.08.48Z" style="fill:#fff"></path><path d="M347.84,429.66l-.22-.43-4.46,2.31.28.4Z" style="fill:#fff"></path><path d="M346.76,371.85h-4.65v.48h4.65Z" style="fill:#fff"></path><path d="M346.76,398.11H342v.49h4.75Z" style="fill:#fff"></path><polygon points="342.2 321.91 341.97 321.49 338.22 323.61 338.46 324.03 342.2 321.91" style="fill:#fff"></polygon><path d="M345.3,406H342v.49h3.34Z" style="fill:#fff"></path><path d="M345.18,337.6l-3.74.42c0,.15,0,.32,0,.48l3.75-.42Z" style="fill:#fff"></path><path d="M345.3,400.74H342c0,.16,0,.32,0,.48h3.31Z" style="fill:#fff"></path><path d="M345.3,395.48H342V396h3.28Z" style="fill:#fff"></path><path d="M336.66,314.25l-.41-.25-2.73,4.37.36.35Z" style="fill:#fff"></path><path d="M331.66,311.54l-.43-.23-2.05,3.93.43.24Z" style="fill:#fff"></path><path d="M333.31,314.05l-.43-.23-1.47,2.83c.14.09.27.19.4.29Z" style="fill:#fff"></path><path d="M328.28,311l-.46-.16-1.1,3.14.45.2Z" style="fill:#fff"></path><path d="M337.42,322.08l4.49-3.88-.14-.21-.16-.18-4.51,3.9Z" style="fill:#fff"></path><path d="M345.3,390.23h-3.24c0,.16,0,.33,0,.49h3.25Z" style="fill:#fff"></path><rect x="334.62" y="318.29" width="4.31" height="0.49" transform="translate(-125.57 351.92) rotate(-47.54)" style="fill:#fff"></rect><path d="M345.3,411.24h-3.37c0,.17,0,.33,0,.49h3.38Z" style="fill:#fff"></path><path d="M345.3,416.5h-3.41V417h3.41Z" style="fill:#fff"></path><path d="M345.46,343l-3.68,0c0,.16,0,.32,0,.48l3.66,0Z" style="fill:#fff"></path><path d="M346.76,413.87h-4.85v.49h4.86Z" style="fill:#fff"></path><path d="M345.43,348.23l-3.46,0c0,.17,0,.32,0,.49l3.45,0Z" style="fill:#fff"></path><path d="M346.76,408.62h-4.82v.48h4.82Z" style="fill:#fff"></path><path d="M345.3,385h-3.22v.48h3.22Z" style="fill:#fff"></path><path d="M346.76,403.36H342v.49h4.78Z" style="fill:#fff"></path><path d="M345.3,369.22h-3.19v.49h3.19Z" style="fill:#fff"></path><path d="M345.3,374.47h-3.2V375h3.2Z" style="fill:#fff"></path><path d="M345.3,379.73h-3.2c0,.16,0,.32,0,.48h3.21Z" style="fill:#fff"></path><path d="M345.3,358.71h-3.2v.49h3.2Z" style="fill:#fff"></path><path d="M345.3,364.45V364h-3.19v.48Z" style="fill:#fff"></path><path d="M345.3,353.46h-3.24c0,.16,0,.32,0,.49h3.23Z" style="fill:#fff"></path><path d="M289.31,180.57h-5.78v2.1h1.56a1.55,1.55,0,0,0,0,.31,1.37,1.37,0,0,0,2.74,0,1.55,1.55,0,0,0,0-.31h1.56Z" style="fill:#fafafa"></path><path d="M367.23,440.8l-1.53.87,0,0a2.86,2.86,0,0,0-2.58,0,.78.78,0,0,0,0,1.49h0l-1.7.95,3.45,1.74,5.82-3.29Z" style="fill:#fafafa"></path><path d="M281.27,187.07a3.37,3.37,0,0,0,.89,3.41c.82,1.09,2.72,2.58,3.57,1.74s.62-2.55-.46-4.36-1.87-2.51-2.55-2.42A1.92,1.92,0,0,0,281.27,187.07Z" style="fill:#ffa8a7"></path><path d="M280.22,194.4c-1.11,1.77-1,3.28.57,4.59s5.83,3.13,7.33,3.95a8.2,8.2,0,0,0,3.48,1.3,1.57,1.57,0,0,0,1.24-2.57,10.73,10.73,0,0,0-2.92-2.76,62.43,62.43,0,0,0-6.43-4.72C282,193.38,280.8,193.48,280.22,194.4Z" style="fill:#ffa8a7"></path><path d="M283.15,200.48c-1.36-.78-3-.62-3.61.44s-.82,2.84.46,3.75,5,2.87,6.27,3.51a14,14,0,0,0,3.85,1.31c.94.13,1.82-1.23,1.51-2.33s-1.34-1.85-2.2-2.7A20.5,20.5,0,0,0,283.15,200.48Z" style="fill:#ffa8a7"></path><path d="M278.44,209.86a4.91,4.91,0,0,1,0-3.38c.21-.73.45-1.38,1.61-1.24a9.17,9.17,0,0,1,2.87,1,8.84,8.84,0,0,1,3.4,2.74c1.26,1.67.1,2.89-1.25,2.82s-1.62-.78-3.21-1.51S279.3,209.05,278.44,209.86Z" style="fill:#ffa8a7"></path><g id="freepik--Chest--inject-162"><path d="M421.45,265.31a10.38,10.38,0,0,1-9.43.18,3.29,3.29,0,0,1-1.73-3.33,5.69,5.69,0,0,1-6.26-3.54,7,7,0,0,1,1.68-7.22,7.38,7.38,0,0,1-7.39-4.41,6.77,6.77,0,0,1,2.64-8.06c-1.28.53-2.77-.84-2.68-2.23a3.41,3.41,0,0,1,2.68-2.82,5.63,5.63,0,0,1-1.12-6.91,6.74,6.74,0,0,1,6.46-3.17c-1-.8-.5-2.63.68-3.16a3.66,3.66,0,0,1,3.61.73,1.24,1.24,0,0,0,.64.33,1.2,1.2,0,0,0,.75-.37,11.68,11.68,0,0,1,11.47-1.66,7.59,7.59,0,0,1,4,3.64c.26.45,2.22,5.44,1.43,5.61a6.9,6.9,0,0,1,7.41,10.23,3.87,3.87,0,0,1,2.8,3,2.75,2.75,0,0,1-2.26,3.12,10.62,10.62,0,0,1-3.6,17.06,8.26,8.26,0,0,1-3.5.69,13.5,13.5,0,0,1-5-1.57A8.63,8.63,0,0,1,421.45,265.31Z" style="fill:#263238"></path><path d="M356.16,272c2.67-12,9.26-21.59,18.22-33.43l19,1.45c4.84.42,25.71,6,25.71,6s5.48,5.39,7.69,17.34c1.79,9.71,1.59,12.05-.82,36-1.14,11.37,8.35,19.64,9.79,33.06-7.6,12.45-55.7,18.61-72.82-6.18,2.41-10.84,4.73-21.87,1.42-36C357.38,285.58,354.74,278.37,356.16,272Z" style="fill:#f5f5f5"></path><path d="M374.84,239.61,393.28,241c4.41.39,22.84,5.27,25.29,5.92.91,1,5.34,6.35,7.24,16.66,1.75,9.46,1.61,11.52-.83,35.76-.64,6.36,1.88,11.72,4.54,17.39,2.22,4.73,4.52,9.63,5.22,15.54-3.87,5.8-17.43,10.14-31.83,10.14-8.26,0-28.51-1.6-39-16.3,2.25-10.1,4.71-21.56,1.32-36l-.08-.36-.31-.22c-6.23-4.26-9.21-10.89-7.79-17.29,2.68-12,9.32-21.5,17.74-32.64m-.46-1c-9,11.84-15.55,21.45-18.22,33.43-1.42,6.33,1.22,13.54,8.18,18.31,3.31,14.12,1,25.15-1.42,36,8.56,12.4,24.87,17.06,40,17.06s29-4.65,32.83-10.88c-1.44-13.42-10.93-21.69-9.79-33.06,2.41-24,2.61-26.33.82-36-2.21-12-7.69-17.34-7.69-17.34s-20.87-5.6-25.71-6l-19-1.45Z" style="fill:#e0e0e0"></path><g id="freepik--Head--inject-162"><path d="M401.33,236.1c2.13-5,9.07-8.46,12.48-12.4s5.79-7.32,6.53-11.47c.43-2.46-.58-6-2.21-7.13,2.36-8.8-3.68-17.33-15-21.67a36.3,36.3,0,0,0-9.82-2.08c-3.36-.29-6.53-1.46-10-1.16a11.12,11.12,0,0,0-7.2,3.19,7.36,7.36,0,0,0-1.74,7.43,7.71,7.71,0,0,0-6.88,5.69,9,9,0,0,0,2.71,8.69,10.52,10.52,0,0,0,7.56,2.63,5.76,5.76,0,0,1,3.77.91c1.43.75,2.86,1.5,4.26,2.3a34.89,34.89,0,0,1,7.79,5.73c1.56,1.6,2,4.05,2.78,6.13L400.92,235Z" style="fill:#263238"></path><path d="M409.22,228.25c-4.31.62-5.82-2.11-5.82-2.11l1.67,16.61c-2.62,7.2-21.06,16.47-23.16,15.45s-3.91-10.13,0-14.76l-.85-7.43a26.83,26.83,0,0,1-5.87-1.78c-5-2.5-6.24-7.38-6.63-12-.4-4.87,1.19-12.64,2.59-15.12a9.68,9.68,0,0,0,1.05-4.51c.28-3.89,1.75-7.24,4.2-8.61a15,15,0,0,1,6.59-2c1,15.12,14.55,20.27,19.17,20.75-.48,1.54-1.37,5.46,1.22,5.84,1.86.28,2.4-2,4.66-3.74s6.81-1.48,8,1.85C417.68,221.36,412.94,227.71,409.22,228.25Z" style="fill:#ffa8a7"></path><polygon points="383.65 206.09 373.29 214.79 379.71 219.66 383.65 206.09" style="fill:#f28f8f"></polygon><path d="M390.91,205.94l3.74,2.59a2.39,2.39,0,0,0-.6-3.25A2.22,2.22,0,0,0,390.91,205.94Z" style="fill:#263238"></path><path d="M373.58,203l4.58.17a2.21,2.21,0,0,0-2.12-2.39A2.41,2.41,0,0,0,373.58,203Z" style="fill:#263238"></path><path d="M398,234.58c2.82-3.54,4.51-9.19,4.51-9.19a41.28,41.28,0,0,1-5.29,7c-4.23,4.12-9.52,4-16.17,3.59l.43,2.43C391.43,239.24,395.87,237.25,398,234.58Z" style="fill:#f28f8f"></path><path d="M387.69,211.5a1.87,1.87,0,1,0,2.25-1.48A1.9,1.9,0,0,0,387.69,211.5Z" style="fill:#263238"></path><path d="M387.43,222.87l-7.63.86a4,4,0,0,0,4.38,3.46A3.74,3.74,0,0,0,387.43,222.87Z" style="fill:#b16668"></path><path d="M382.09,226.82a4.54,4.54,0,0,1,5.33-2.86,3.7,3.7,0,0,1-3.24,3.23A3.91,3.91,0,0,1,382.09,226.82Z" style="fill:#f28f8f"></path><path d="M373.28,207.84a1.88,1.88,0,0,0,1.58,2.16,1.93,1.93,0,1,0-1.58-2.16Z" style="fill:#263238"></path></g></g><g id="freepik--arm--inject-162"><path d="M352,306.27c-2.59.09-5.18-1.35-7.66-1.82a37.49,37.49,0,0,0-6.62-.36c-2.31,0-4.62,0-6.93,0-.58,0-.77.55-.75,1.07a3.26,3.26,0,0,0,1.38,2.43,7.23,7.23,0,0,0,2.65,1.15,18.06,18.06,0,0,0,2.54.48c.9.11,3,.35,2.68,1.69Z" style="fill:#ffa8a7"></path><path d="M352,306.27a13.94,13.94,0,0,1-5.31-.87,21.71,21.71,0,0,0-2.56-.63,20.76,20.76,0,0,0-2.62-.26c-1.77-.07-3.57-.06-5.36-.14s-3.57-.14-5.36-.3c1.79-.15,3.58-.22,5.37-.27s3.57-.09,5.38,0a20.78,20.78,0,0,1,2.72.31,16.37,16.37,0,0,1,2.61.78c.84.31,1.67.63,2.52.89A10.42,10.42,0,0,0,352,306.27Z" style="fill:#f28f8f"></path><path d="M325.28,317.52a5.51,5.51,0,0,0,1.41,1.4,14.93,14.93,0,0,0,2.06,1.26,3.29,3.29,0,0,0,1.35.46,7.69,7.69,0,0,0,1.59,0l3.69-.38c0,.27-.45.5-.66.63s-.53.35-.8.52a14.89,14.89,0,0,1-3.25,1.54,7.6,7.6,0,0,1-1.41.33c-3.25.44-6.53-.58-8.19,1.11-1,1,.6,1.8,1.39,2.13a18,18,0,0,0,2.21.56,1.59,1.59,0,0,0,.11,1.49,3.64,3.64,0,0,0,1.19.77c2.19.83,4.88.55,6.73.32-1.45.57-2.39.6-3.09,1.27a1.28,1.28,0,0,0-.24,1.44c.26.58,1.38.52,2,.5a24.66,24.66,0,0,0,9.76-1.92,22.12,22.12,0,0,0,4.2-1.74c1-.64,3.64-2.66,5.09-3.71,3.72-2.69,5.88-3,7.67-3.08A391,391,0,0,0,397.58,318c11.11-1.68,12.32-3.22,16.22-11.92s7.14-18.18,10.73-28.29c8.33-23.47,3.23-28.72-5.45-31.75-6.13-.45-10.7,9.71-14.7,20.45l-11.14,29.69s-17.35,7-25.5,8.71c-9.44,2-10.81,1.84-15.71,1.34l-12.71,4.62c-.27,1-1.94,1.89-2.71,2.45a13.86,13.86,0,0,1-6.71,2.31,16.88,16.88,0,0,0-3.35-1.75c-.1,0-.45.11-.56.15a.73.73,0,0,0-.3.19,2.2,2.2,0,0,0-.44.94,4.86,4.86,0,0,0-.2,1.73A1.48,1.48,0,0,0,325.28,317.52Z" style="fill:#ffa8a7"></path><path d="M324.67,327a41.65,41.65,0,0,0,8.07-.35,15,15,0,0,0,3.77-1.34l3.71-1.67a34.5,34.5,0,0,1-3.52,2.07,13.72,13.72,0,0,1-3.86,1.45A25.72,25.72,0,0,1,324.67,327Z" style="fill:#f28f8f"></path><path d="M332.7,329.62a25.71,25.71,0,0,0,4-1.33c1.32-.5,2.57-1.16,3.92-1.68a16.1,16.1,0,0,1-3.72,2.17A10.44,10.44,0,0,1,332.7,329.62Z" style="fill:#f28f8f"></path></g></g></g></g><g id="freepik--Pincushion--inject-162"><g id="freepik--pincushion--inject-162"><path d="M440.17,421.29a13.52,13.52,0,0,0-2-6.43,5.84,5.84,0,0,0-4.87-2.51,4.48,4.48,0,0,0-6.89-2.41h-2.31a4.48,4.48,0,0,0-6.89,2.41,5.82,5.82,0,0,0-4.86,2.51c-1.87,2.48-2.25,6.61-1.73,9.56a6.15,6.15,0,0,0,4.09,5.14c.7.24,1.13.93,1.6,1.5a6.93,6.93,0,0,0,8.95,1.19,6.92,6.92,0,0,0,8.94-1.19,6.72,6.72,0,0,1,1.49-1.52,10.44,10.44,0,0,1,1.41-.53,5.13,5.13,0,0,0,3.1-4.58A17.34,17.34,0,0,0,440.17,421.29Z" style="fill:#BA68C8"></path><path d="M423.57,409.89a5.25,5.25,0,0,0-.78,1.91,10.6,10.6,0,0,0-6.38.1c-.37.12-.81.39-.72.77l4.21.92a4.56,4.56,0,0,0-2.67,3.65,3,3,0,0,0,2.46-.41,13.37,13.37,0,0,1,2.46-.81,1.87,1.87,0,0,1,1.1,0,1.41,1.41,0,0,1,.68.76,17.86,17.86,0,0,1,.51,2.19c.22.71.86,1.43,1.6,1.29a1.73,1.73,0,0,0,1.13-1.16c.42-1-.28-2.26,1.24-2.65a4.09,4.09,0,0,1,2.37.33l2.72,1a1.27,1.27,0,0,0,.08-1.24,2.73,2.73,0,0,0-.8-1,8.39,8.39,0,0,0-2.12-1.35,7.7,7.7,0,0,1,3.21-1.36.68.68,0,0,0,.46-.21c.2-.32-.25-.64-.61-.73a14.67,14.67,0,0,0-5.79-.33c.57-.09-1.26-2.27-1.55-2.41A2.33,2.33,0,0,0,423.57,409.89Z" style="fill:#455a64"></path><path d="M425.27,432.25a7.84,7.84,0,0,0,.69.41c0-1.07,0-2.25,0-3.24a39.5,39.5,0,0,0-.41-7.77c0-.09-.12-.1-.14,0a14.9,14.9,0,0,0-.39,3.94c0,1.3-.07,2.6-.12,3.89,0,1-.09,2.06-.14,3.09C424.93,432.47,425.1,432.36,425.27,432.25Z" style="opacity:0.2"></path><path d="M434.25,418.5c-.11-.1-.22.15-.19.23a31.87,31.87,0,0,1,1.24,3.43,13.4,13.4,0,0,1,.45,3.08,12.2,12.2,0,0,1-.3,3.3,14.51,14.51,0,0,1-.47,1.59l0,0a4.1,4.1,0,0,1,.74-.63,3.2,3.2,0,0,1,.82-.33c.06-.24.12-.48.17-.72a13.76,13.76,0,0,0,.21-3.57A10,10,0,0,0,434.25,418.5Z" style="opacity:0.2"></path><path d="M416.28,418.5a10,10,0,0,0-2.65,6.42,13.34,13.34,0,0,0,.22,3.57c0,.26.11.52.17.77a6.4,6.4,0,0,0,.7.3,2,2,0,0,1,.84.59v0a14.56,14.56,0,0,1-.48-1.59,12.61,12.61,0,0,1-.3-3.3,13.4,13.4,0,0,1,.45-3.08,34.17,34.17,0,0,1,1.24-3.43C416.5,418.65,416.39,418.4,416.28,418.5Z" style="opacity:0.2"></path><polygon points="432.03 415.79 434.22 406.46 435.15 406.73 432.03 415.79" style="fill:#e0e0e0"></polygon><path d="M436.06,406.74a1.38,1.38,0,1,1-1.22-1.52A1.38,1.38,0,0,1,436.06,406.74Z" style="fill:#BA68C8"></path><path d="M436.06,406.74a1.38,1.38,0,1,1-1.22-1.52A1.38,1.38,0,0,1,436.06,406.74Z" style="fill:#fff;opacity:0.2"></path><polygon points="417.16 417.95 408.53 413.79 408.99 412.94 417.16 417.95" style="fill:#e0e0e0"></polygon><path d="M409.2,412.06a1.38,1.38,0,1,1-1.74.86A1.37,1.37,0,0,1,409.2,412.06Z" style="fill:#BA68C8"></path><path d="M409.2,412.06a1.38,1.38,0,1,1-1.74.86A1.37,1.37,0,0,1,409.2,412.06Z" style="fill:#fff;opacity:0.2"></path><polygon points="424.08 414.19 420.98 405.12 421.91 404.85 424.08 414.19" style="fill:#e0e0e0"></polygon><path d="M422.68,404.39a1.38,1.38,0,1,1-1.84-.64A1.38,1.38,0,0,1,422.68,404.39Z" style="fill:#BA68C8"></path><path d="M422.68,404.39a1.38,1.38,0,1,1-1.84-.64A1.38,1.38,0,0,1,422.68,404.39Z" style="fill:#fff;opacity:0.2"></path><polygon points="430.73 420.92 430.07 411.36 431.04 411.34 430.73 420.92" style="fill:#e0e0e0"></polygon><path d="M431.91,411.09a1.38,1.38,0,0,1-2.71.52,1.38,1.38,0,1,1,2.71-.52Z" style="fill:#BA68C8"></path><path d="M431.91,411.09a1.38,1.38,0,0,1-2.71.52,1.38,1.38,0,1,1,2.71-.52Z" style="fill:#fff;opacity:0.2"></path><polygon points="422.07 421.39 419.32 412.22 420.26 411.99 422.07 421.39" style="fill:#e0e0e0"></polygon><path d="M421.06,411.55a1.38,1.38,0,1,1-1.82-.71A1.38,1.38,0,0,1,421.06,411.55Z" style="fill:#BA68C8"></path><path d="M421.06,411.55a1.38,1.38,0,1,1-1.82-.71A1.38,1.38,0,0,1,421.06,411.55Z" style="fill:#fff;opacity:0.2"></path><polygon points="434.38 418.12 439.39 409.95 440.19 410.5 434.38 418.12" style="fill:#e0e0e0"></polygon><path d="M441,410.8a1.38,1.38,0,1,1-.67-1.83A1.38,1.38,0,0,1,441,410.8Z" style="fill:#BA68C8"></path><path d="M441,410.8a1.38,1.38,0,1,1-.67-1.83A1.38,1.38,0,0,1,441,410.8Z" style="fill:#fff;opacity:0.2"></path><polygon points="417.51 415.62 412.53 407.44 413.38 406.97 417.51 415.62" style="fill:#e0e0e0"></polygon><path d="M414,406.35a1.38,1.38,0,1,1-1.94-.23A1.38,1.38,0,0,1,414,406.35Z" style="fill:#BA68C8"></path><path d="M414,406.35a1.38,1.38,0,1,1-1.94-.23A1.38,1.38,0,0,1,414,406.35Z" style="fill:#fff;opacity:0.2"></path><polygon points="427.13 413.89 427.68 404.32 428.64 404.43 427.13 413.89" style="fill:#e0e0e0"></polygon><path d="M429.53,404.28a1.38,1.38,0,1,1-1.46-1.28A1.38,1.38,0,0,1,429.53,404.28Z" style="fill:#BA68C8"></path><path d="M429.53,404.28a1.38,1.38,0,1,1-1.46-1.28A1.38,1.38,0,0,1,429.53,404.28Z" style="fill:#fff;opacity:0.2"></path></g></g></svg>
